SplineFontDB: 3.2
FontName: MyCustomFont
FullName: My Custom Font
FamilyName: CustomFamily
Weight: Regular
Copyright: Copyright (c) 2024, 
UComments: "2024-8-16: Created with FontForge (http://fontforge.org)"
Version: 001.000
ItalicAngle: 0
UnderlinePosition: -100
UnderlineWidth: 50
Ascent: 800
Descent: 200
InvalidEm: 0
LayerCount: 2
Layer: 0 0 "Back" 1
Layer: 1 0 "Fore" 0
XUID: [1021 849 -148889464 14101861]
OS2Version: 0
OS2_WeightWidthSlopeOnly: 0
OS2_UseTypoMetrics: 1
CreationTime: 1723802854
ModificationTime: 1723802855
OS2TypoAscent: 0
OS2TypoAOffset: 1
OS2TypoDescent: 0
OS2TypoDOffset: 1
OS2TypoLinegap: 0
OS2WinAscent: 0
OS2WinAOffset: 1
OS2WinDescent: 0
OS2WinDOffset: 1
HheadAscent: 0
HheadAOffset: 1
HheadDescent: 0
HheadDOffset: 1
OS2Vendor: 'PfEd'
DEI: 91125
Encoding: ISO8859-1
UnicodeInterp: none
NameList: AGL For New Fonts
DisplaySize: -48
AntiAlias: 1
FitToEm: 0
BeginChars: 256 56

StartChar: a
Encoding: 97 97 0
Width: 1000
Flags: HW
LayerCount: 2
Back
Fore
SplineSet
277.111328125 522.22265625 m 1
 277.111328125 577.77734375 l 1
 499.333007812 577.77734375 l 1
 721.555664062 577.77734375 l 1
 721.555664062 522.22265625 l 1
 721.555664062 466.666992188 l 1
 777.111328125 466.666992188 l 1
 832.666992188 466.666992188 l 1
 832.666992188 133.333007812 l 1
 832.666992188 -200 l 1
 554.888671875 -200 l 1
 277.111328125 -200 l 1
 277.111328125 -144.444335938 l 1
 277.111328125 -88.888671875 l 1
 221.555664062 -88.888671875 l 1
 166 -88.888671875 l 1
 166 22.22265625 l 1
 166 133.333007812 l 1
 221.555664062 133.333007812 l 1
 277.111328125 133.333007812 l 1
 277.111328125 188.888671875 l 1
 277.111328125 244.444335938 l 1
 499.333007812 244.444335938 l 1
 721.555664062 244.444335938 l 1
 721.555664062 355.555664062 l 1
 721.555664062 466.666992188 l 1
 499.333007812 466.666992188 l 1
 277.111328125 466.666992188 l 1
 277.111328125 522.22265625 l 1
721.555664062 22.22265625 m 1
 721.555664062 133.333007812 l 1
 499.333007812 133.333007812 l 1
 277.111328125 133.333007812 l 1
 277.111328125 22.22265625 l 1
 277.111328125 -88.888671875 l 1
 499.333007812 -88.888671875 l 1
 721.555664062 -88.888671875 l 1
 721.555664062 22.22265625 l 1
EndSplineSet
EndChar

StartChar: b
Encoding: 98 98 1
Width: 1000
Flags: HW
LayerCount: 2
Back
Fore
SplineSet
166 300 m 1
 166 800 l 1
 221.555664062 800 l 1
 277.111328125 800 l 1
 277.111328125 633.333007812 l 1
 277.111328125 466.666992188 l 1
 332.666992188 466.666992188 l 1
 388.221679688 466.666992188 l 1
 388.221679688 522.22265625 l 1
 388.221679688 577.77734375 l 1
 554.888671875 577.77734375 l 1
 721.555664062 577.77734375 l 1
 721.555664062 522.22265625 l 1
 721.555664062 466.666992188 l 1
 777.111328125 466.666992188 l 1
 832.666992188 466.666992188 l 1
 832.666992188 188.888671875 l 1
 832.666992188 -88.888671875 l 1
 777.111328125 -88.888671875 l 1
 721.555664062 -88.888671875 l 1
 721.555664062 -144.444335938 l 1
 721.555664062 -200 l 1
 554.888671875 -200 l 1
 388.221679688 -200 l 1
 388.221679688 -144.444335938 l 1
 388.221679688 -88.888671875 l 1
 332.666992188 -88.888671875 l 1
 277.111328125 -88.888671875 l 1
 277.111328125 -144.444335938 l 1
 277.111328125 -200 l 1
 221.555664062 -200 l 1
 166 -200 l 1
 166 300 l 1
721.555664062 188.888671875 m 1
 721.555664062 466.666992188 l 1
 554.888671875 466.666992188 l 1
 388.221679688 466.666992188 l 1
 388.221679688 411.111328125 l 1
 388.221679688 355.555664062 l 1
 332.666992188 355.555664062 l 1
 277.111328125 355.555664062 l 1
 277.111328125 188.888671875 l 1
 277.111328125 22.22265625 l 1
 332.666992188 22.22265625 l 1
 388.221679688 22.22265625 l 1
 388.221679688 -33.3330078125 l 1
 388.221679688 -88.888671875 l 1
 554.888671875 -88.888671875 l 1
 721.555664062 -88.888671875 l 1
 721.555664062 188.888671875 l 1
EndSplineSet
EndChar

StartChar: c
Encoding: 99 99 2
Width: 1000
Flags: HW
LayerCount: 2
Back
Fore
SplineSet
277.111328125 522.22265625 m 1
 277.111328125 577.77734375 l 1
 499.333007812 577.77734375 l 1
 721.555664062 577.77734375 l 1
 721.555664062 522.22265625 l 1
 721.555664062 466.666992188 l 1
 777.111328125 466.666992188 l 1
 832.666992188 466.666992188 l 1
 832.666992188 411.111328125 l 1
 832.666992188 355.555664062 l 1
 777.111328125 355.555664062 l 1
 721.555664062 355.555664062 l 1
 721.555664062 411.111328125 l 1
 721.555664062 466.666992188 l 1
 499.333007812 466.666992188 l 1
 277.111328125 466.666992188 l 1
 277.111328125 188.888671875 l 1
 277.111328125 -88.888671875 l 1
 499.333007812 -88.888671875 l 1
 721.555664062 -88.888671875 l 1
 721.555664062 -33.3330078125 l 1
 721.555664062 22.22265625 l 1
 777.111328125 22.22265625 l 1
 832.666992188 22.22265625 l 1
 832.666992188 -33.3330078125 l 1
 832.666992188 -88.888671875 l 1
 777.111328125 -88.888671875 l 1
 721.555664062 -88.888671875 l 1
 721.555664062 -144.444335938 l 1
 721.555664062 -200 l 1
 499.333007812 -200 l 1
 277.111328125 -200 l 1
 277.111328125 -144.444335938 l 1
 277.111328125 -88.888671875 l 1
 221.555664062 -88.888671875 l 1
 166 -88.888671875 l 1
 166 188.888671875 l 1
 166 466.666992188 l 1
 221.555664062 466.666992188 l 1
 277.111328125 466.666992188 l 1
 277.111328125 522.22265625 l 1
EndSplineSet
EndChar

StartChar: e
Encoding: 101 101 3
Width: 1000
Flags: HW
LayerCount: 2
Back
Fore
SplineSet
277.111328125 522.22265625 m 1
 277.111328125 577.77734375 l 1
 499.333007812 577.77734375 l 1
 721.555664062 577.77734375 l 1
 721.555664062 522.22265625 l 1
 721.555664062 466.666992188 l 1
 777.111328125 466.666992188 l 1
 832.666992188 466.666992188 l 1
 832.666992188 300 l 1
 832.666992188 133.333007812 l 1
 554.888671875 133.333007812 l 1
 277.111328125 133.333007812 l 1
 277.111328125 22.22265625 l 1
 277.111328125 -88.888671875 l 1
 499.333007812 -88.888671875 l 1
 721.555664062 -88.888671875 l 1
 721.555664062 -33.3330078125 l 1
 721.555664062 22.22265625 l 1
 777.111328125 22.22265625 l 1
 832.666992188 22.22265625 l 1
 832.666992188 -33.3330078125 l 1
 832.666992188 -88.888671875 l 1
 777.111328125 -88.888671875 l 1
 721.555664062 -88.888671875 l 1
 721.555664062 -144.444335938 l 1
 721.555664062 -200 l 1
 499.333007812 -200 l 1
 277.111328125 -200 l 1
 277.111328125 -144.444335938 l 1
 277.111328125 -88.888671875 l 1
 221.555664062 -88.888671875 l 1
 166 -88.888671875 l 1
 166 188.888671875 l 1
 166 466.666992188 l 1
 221.555664062 466.666992188 l 1
 277.111328125 466.666992188 l 1
 277.111328125 522.22265625 l 1
721.555664062 355.555664062 m 1
 721.555664062 466.666992188 l 1
 499.333007812 466.666992188 l 1
 277.111328125 466.666992188 l 1
 277.111328125 355.555664062 l 1
 277.111328125 244.444335938 l 1
 499.333007812 244.444335938 l 1
 721.555664062 244.444335938 l 1
 721.555664062 355.555664062 l 1
EndSplineSet
EndChar

StartChar: f
Encoding: 102 102 4
Width: 1000
Flags: HW
LayerCount: 2
Back
Fore
SplineSet
552.666015625 744.444335938 m 1
 552.666015625 800 l 1
 608.221679688 800 l 1
 663.77734375 800 l 1
 663.77734375 744.444335938 l 1
 663.77734375 688.888671875 l 1
 608.221679688 688.888671875 l 1
 552.666015625 688.888671875 l 1
 552.666015625 633.333007812 l 1
 552.666015625 577.77734375 l 1
 608.221679688 577.77734375 l 1
 663.77734375 577.77734375 l 1
 663.77734375 522.22265625 l 1
 663.77734375 466.666992188 l 1
 608.221679688 466.666992188 l 1
 552.666015625 466.666992188 l 1
 552.666015625 188.888671875 l 1
 552.666015625 -88.888671875 l 1
 608.221679688 -88.888671875 l 1
 663.77734375 -88.888671875 l 1
 663.77734375 -144.444335938 l 1
 663.77734375 -200 l 1
 499.888671875 -200 l 1
 336 -200 l 1
 336 -144.444335938 l 1
 336 -88.888671875 l 1
 388.77734375 -88.888671875 l 1
 441.5546875 -88.888671875 l 1
 441.5546875 188.888671875 l 1
 441.5546875 466.666992188 l 1
 388.77734375 466.666992188 l 1
 336 466.666992188 l 1
 336 522.22265625 l 1
 336 577.77734375 l 1
 388.77734375 577.77734375 l 1
 441.5546875 577.77734375 l 1
 441.5546875 633.333007812 l 1
 441.5546875 688.888671875 l 1
 497.110351562 688.888671875 l 1
 552.666015625 688.888671875 l 1
 552.666015625 744.444335938 l 1
EndSplineSet
EndChar

StartChar: g
Encoding: 103 103 5
Width: 1000
Flags: HW
LayerCount: 2
Back
Fore
SplineSet
277.111328125 633.333007812 m 1
 277.111328125 688.888671875 l 1
 443.77734375 688.888671875 l 1
 610.444335938 688.888671875 l 1
 610.444335938 633.333007812 l 1
 610.444335938 577.77734375 l 1
 666 577.77734375 l 1
 721.555664062 577.77734375 l 1
 721.555664062 633.333007812 l 1
 721.555664062 688.888671875 l 1
 777.111328125 688.888671875 l 1
 832.666992188 688.888671875 l 1
 832.666992188 300 l 1
 832.666992188 -88.888671875 l 1
 777.111328125 -88.888671875 l 1
 721.555664062 -88.888671875 l 1
 721.555664062 -144.444335938 l 1
 721.555664062 -200 l 1
 499.333007812 -200 l 1
 277.111328125 -200 l 1
 277.111328125 -144.444335938 l 1
 277.111328125 -88.888671875 l 1
 499.333007812 -88.888671875 l 1
 721.555664062 -88.888671875 l 1
 721.555664062 22.22265625 l 1
 721.555664062 133.333007812 l 1
 666 133.333007812 l 1
 610.444335938 133.333007812 l 1
 610.444335938 77.77734375 l 1
 610.444335938 22.22265625 l 1
 443.77734375 22.22265625 l 1
 277.111328125 22.22265625 l 1
 277.111328125 77.77734375 l 1
 277.111328125 133.333007812 l 1
 221.555664062 133.333007812 l 1
 166 133.333007812 l 1
 166 355.555664062 l 1
 166 577.77734375 l 1
 221.555664062 577.77734375 l 1
 277.111328125 577.77734375 l 1
 277.111328125 633.333007812 l 1
610.444335938 522.22265625 m 1
 610.444335938 577.77734375 l 1
 443.77734375 577.77734375 l 1
 277.111328125 577.77734375 l 1
 277.111328125 355.555664062 l 1
 277.111328125 133.333007812 l 1
 443.77734375 133.333007812 l 1
 610.444335938 133.333007812 l 1
 610.444335938 188.888671875 l 1
 610.444335938 244.444335938 l 1
 666 244.444335938 l 1
 721.555664062 244.444335938 l 1
 721.555664062 355.555664062 l 1
 721.555664062 466.666992188 l 1
 666 466.666992188 l 1
 610.444335938 466.666992188 l 1
 610.444335938 522.22265625 l 1
EndSplineSet
EndChar

StartChar: h
Encoding: 104 104 6
Width: 1000
Flags: HW
LayerCount: 2
Back
Fore
SplineSet
166 300 m 1
 166 800 l 1
 221.555664062 800 l 1
 277.111328125 800 l 1
 277.111328125 633.333007812 l 1
 277.111328125 466.666992188 l 1
 332.666992188 466.666992188 l 1
 388.221679688 466.666992188 l 1
 388.221679688 522.22265625 l 1
 388.221679688 577.77734375 l 1
 554.888671875 577.77734375 l 1
 721.555664062 577.77734375 l 1
 721.555664062 522.22265625 l 1
 721.555664062 466.666992188 l 1
 777.111328125 466.666992188 l 1
 832.666992188 466.666992188 l 1
 832.666992188 133.333007812 l 1
 832.666992188 -200 l 1
 777.111328125 -200 l 1
 721.555664062 -200 l 1
 721.555664062 133.333007812 l 1
 721.555664062 466.666992188 l 1
 554.888671875 466.666992188 l 1
 388.221679688 466.666992188 l 1
 388.221679688 411.111328125 l 1
 388.221679688 355.555664062 l 1
 332.666992188 355.555664062 l 1
 277.111328125 355.555664062 l 1
 277.111328125 77.77734375 l 1
 277.111328125 -200 l 1
 221.555664062 -200 l 1
 166 -200 l 1
 166 300 l 1
EndSplineSet
EndChar

StartChar: i
Encoding: 105 105 7
Width: 999
Flags: HW
LayerCount: 2
Back
Fore
SplineSet
333 522.22265625 m 1
 333 577.77734375 l 1
 444.110351562 577.77734375 l 1
 555.221679688 577.77734375 l 1
 555.221679688 244.444335938 l 1
 555.221679688 -88.888671875 l 1
 610.77734375 -88.888671875 l 1
 666.333007812 -88.888671875 l 1
 666.333007812 -144.444335938 l 1
 666.333007812 -200 l 1
 499.666015625 -200 l 1
 333 -200 l 1
 333 -144.444335938 l 1
 333 -88.888671875 l 1
 388.5546875 -88.888671875 l 1
 444.110351562 -88.888671875 l 1
 444.110351562 188.888671875 l 1
 444.110351562 466.666992188 l 1
 388.5546875 466.666992188 l 1
 333 466.666992188 l 1
 333 522.22265625 l 1
444.110351562 744.444335938 m 1
 444.110351562 800 l 1
 499.666015625 800 l 1
 555.221679688 800 l 1
 555.221679688 744.444335938 l 1
 555.221679688 688.888671875 l 1
 499.666015625 688.888671875 l 1
 444.110351562 688.888671875 l 1
 444.110351562 744.444335938 l 1
EndSplineSet
EndChar

StartChar: k
Encoding: 107 107 8
Width: 1000
Flags: HW
LayerCount: 2
Back
Fore
SplineSet
222 300 m 1
 222 800 l 1
 277.555664062 800 l 1
 333.111328125 800 l 1
 333.111328125 522.22265625 l 1
 333.111328125 244.444335938 l 1
 388.666015625 244.444335938 l 1
 444.221679688 244.444335938 l 1
 444.221679688 300 l 1
 444.221679688 355.555664062 l 1
 499.77734375 355.555664062 l 1
 555.333007812 355.555664062 l 1
 555.333007812 411.111328125 l 1
 555.333007812 466.666992188 l 1
 610.888671875 466.666992188 l 1
 666.444335938 466.666992188 l 1
 666.444335938 522.22265625 l 1
 666.444335938 577.77734375 l 1
 722 577.77734375 l 1
 777.555664062 577.77734375 l 1
 777.555664062 522.22265625 l 1
 777.555664062 466.666992188 l 1
 722 466.666992188 l 1
 666.444335938 466.666992188 l 1
 666.444335938 411.111328125 l 1
 666.444335938 355.555664062 l 1
 610.888671875 355.555664062 l 1
 555.333007812 355.555664062 l 1
 555.333007812 300 l 1
 555.333007812 244.444335938 l 1
 499.77734375 244.444335938 l 1
 444.221679688 244.444335938 l 1
 444.221679688 188.888671875 l 1
 444.221679688 133.333007812 l 1
 499.77734375 133.333007812 l 1
 555.333007812 133.333007812 l 1
 555.333007812 77.77734375 l 1
 555.333007812 22.22265625 l 1
 610.888671875 22.22265625 l 1
 666.444335938 22.22265625 l 1
 666.444335938 -33.3330078125 l 1
 666.444335938 -88.888671875 l 1
 722 -88.888671875 l 1
 777.555664062 -88.888671875 l 1
 777.555664062 -144.444335938 l 1
 777.555664062 -200 l 1
 722 -200 l 1
 666.444335938 -200 l 1
 666.444335938 -144.444335938 l 1
 666.444335938 -88.888671875 l 1
 610.888671875 -88.888671875 l 1
 555.333007812 -88.888671875 l 1
 555.333007812 -33.3330078125 l 1
 555.333007812 22.22265625 l 1
 499.77734375 22.22265625 l 1
 444.221679688 22.22265625 l 1
 444.221679688 77.77734375 l 1
 444.221679688 133.333007812 l 1
 388.666015625 133.333007812 l 1
 333.111328125 133.333007812 l 1
 333.111328125 -33.3330078125 l 1
 333.111328125 -200 l 1
 277.555664062 -200 l 1
 222 -200 l 1
 222 300 l 1
EndSplineSet
EndChar

StartChar: l
Encoding: 108 108 9
Width: 999
Flags: HW
LayerCount: 2
Back
Fore
SplineSet
333 744.444335938 m 1
 333 800 l 1
 444.110351562 800 l 1
 555.221679688 800 l 1
 555.221679688 355.555664062 l 1
 555.221679688 -88.888671875 l 1
 610.77734375 -88.888671875 l 1
 666.333007812 -88.888671875 l 1
 666.333007812 -144.444335938 l 1
 666.333007812 -200 l 1
 499.666015625 -200 l 1
 333 -200 l 1
 333 -144.444335938 l 1
 333 -88.888671875 l 1
 388.5546875 -88.888671875 l 1
 444.110351562 -88.888671875 l 1
 444.110351562 300 l 1
 444.110351562 688.888671875 l 1
 388.5546875 688.888671875 l 1
 333 688.888671875 l 1
 333 744.444335938 l 1
EndSplineSet
EndChar

StartChar: m
Encoding: 109 109 10
Width: 1000
Flags: HW
LayerCount: 2
Back
Fore
SplineSet
222 188.888671875 m 1
 222 577.77734375 l 1
 333.111328125 577.77734375 l 1
 444.221679688 577.77734375 l 1
 444.221679688 522.22265625 l 1
 444.221679688 466.666992188 l 1
 499.77734375 466.666992188 l 1
 555.333007812 466.666992188 l 1
 555.333007812 522.22265625 l 1
 555.333007812 577.77734375 l 1
 610.888671875 577.77734375 l 1
 666.444335938 577.77734375 l 1
 666.444335938 522.22265625 l 1
 666.444335938 466.666992188 l 1
 722 466.666992188 l 1
 777.555664062 466.666992188 l 1
 777.555664062 133.333007812 l 1
 777.555664062 -200 l 1
 722 -200 l 1
 666.444335938 -200 l 1
 666.444335938 133.333007812 l 1
 666.444335938 466.666992188 l 1
 610.888671875 466.666992188 l 1
 555.333007812 466.666992188 l 1
 555.333007812 133.333007812 l 1
 555.333007812 -200 l 1
 499.77734375 -200 l 1
 444.221679688 -200 l 1
 444.221679688 133.333007812 l 1
 444.221679688 466.666992188 l 1
 388.666015625 466.666992188 l 1
 333.111328125 466.666992188 l 1
 333.111328125 133.333007812 l 1
 333.111328125 -200 l 1
 277.555664062 -200 l 1
 222 -200 l 1
 222 188.888671875 l 1
EndSplineSet
EndChar

StartChar: n
Encoding: 110 110 11
Width: 1000
Flags: HW
LayerCount: 2
Back
Fore
SplineSet
166 188.888671875 m 1
 166 577.77734375 l 1
 221.555664062 577.77734375 l 1
 277.111328125 577.77734375 l 1
 277.111328125 522.22265625 l 1
 277.111328125 466.666992188 l 1
 332.666992188 466.666992188 l 1
 388.221679688 466.666992188 l 1
 388.221679688 522.22265625 l 1
 388.221679688 577.77734375 l 1
 554.888671875 577.77734375 l 1
 721.555664062 577.77734375 l 1
 721.555664062 522.22265625 l 1
 721.555664062 466.666992188 l 1
 777.111328125 466.666992188 l 1
 832.666992188 466.666992188 l 1
 832.666992188 133.333007812 l 1
 832.666992188 -200 l 1
 777.111328125 -200 l 1
 721.555664062 -200 l 1
 721.555664062 133.333007812 l 1
 721.555664062 466.666992188 l 1
 554.888671875 466.666992188 l 1
 388.221679688 466.666992188 l 1
 388.221679688 411.111328125 l 1
 388.221679688 355.555664062 l 1
 332.666992188 355.555664062 l 1
 277.111328125 355.555664062 l 1
 277.111328125 77.77734375 l 1
 277.111328125 -200 l 1
 221.555664062 -200 l 1
 166 -200 l 1
 166 188.888671875 l 1
EndSplineSet
EndChar

StartChar: o
Encoding: 111 111 12
Width: 1000
Flags: HW
LayerCount: 2
Back
Fore
SplineSet
388.221679688 522.22265625 m 1
 388.221679688 577.77734375 l 1
 499.333007812 577.77734375 l 1
 610.444335938 577.77734375 l 1
 610.444335938 522.22265625 l 1
 610.444335938 466.666992188 l 1
 666 466.666992188 l 1
 721.555664062 466.666992188 l 1
 721.555664062 411.111328125 l 1
 721.555664062 355.555664062 l 1
 777.111328125 355.555664062 l 1
 832.666992188 355.555664062 l 1
 832.666992188 188.888671875 l 1
 832.666992188 22.22265625 l 1
 777.111328125 22.22265625 l 1
 721.555664062 22.22265625 l 1
 721.555664062 -33.3330078125 l 1
 721.555664062 -88.888671875 l 1
 666 -88.888671875 l 1
 610.444335938 -88.888671875 l 1
 610.444335938 -144.444335938 l 1
 610.444335938 -200 l 1
 499.333007812 -200 l 1
 388.221679688 -200 l 1
 388.221679688 -144.444335938 l 1
 388.221679688 -88.888671875 l 1
 332.666992188 -88.888671875 l 1
 277.111328125 -88.888671875 l 1
 277.111328125 -33.3330078125 l 1
 277.111328125 22.22265625 l 1
 221.555664062 22.22265625 l 1
 166 22.22265625 l 1
 166 188.888671875 l 1
 166 355.555664062 l 1
 221.555664062 355.555664062 l 1
 277.111328125 355.555664062 l 1
 277.111328125 411.111328125 l 1
 277.111328125 466.666992188 l 1
 332.666992188 466.666992188 l 1
 388.221679688 466.666992188 l 1
 388.221679688 522.22265625 l 1
610.444335938 411.111328125 m 1
 610.444335938 466.666992188 l 1
 499.333007812 466.666992188 l 1
 388.221679688 466.666992188 l 1
 388.221679688 411.111328125 l 1
 388.221679688 355.555664062 l 1
 332.666992188 355.555664062 l 1
 277.111328125 355.555664062 l 1
 277.111328125 188.888671875 l 1
 277.111328125 22.22265625 l 1
 332.666992188 22.22265625 l 1
 388.221679688 22.22265625 l 1
 388.221679688 -33.3330078125 l 1
 388.221679688 -88.888671875 l 1
 499.333007812 -88.888671875 l 1
 610.444335938 -88.888671875 l 1
 610.444335938 -33.3330078125 l 1
 610.444335938 22.22265625 l 1
 666 22.22265625 l 1
 721.555664062 22.22265625 l 1
 721.555664062 188.888671875 l 1
 721.555664062 355.555664062 l 1
 666 355.555664062 l 1
 610.444335938 355.555664062 l 1
 610.444335938 411.111328125 l 1
EndSplineSet
EndChar

StartChar: p
Encoding: 112 112 13
Width: 1000
Flags: HW
LayerCount: 2
Back
Fore
SplineSet
166 244.444335938 m 1
 166 688.888671875 l 1
 221.555664062 688.888671875 l 1
 277.111328125 688.888671875 l 1
 277.111328125 633.333007812 l 1
 277.111328125 577.77734375 l 1
 332.666992188 577.77734375 l 1
 388.221679688 577.77734375 l 1
 388.221679688 633.333007812 l 1
 388.221679688 688.888671875 l 1
 554.888671875 688.888671875 l 1
 721.555664062 688.888671875 l 1
 721.555664062 633.333007812 l 1
 721.555664062 577.77734375 l 1
 777.111328125 577.77734375 l 1
 832.666992188 577.77734375 l 1
 832.666992188 355.555664062 l 1
 832.666992188 133.333007812 l 1
 777.111328125 133.333007812 l 1
 721.555664062 133.333007812 l 1
 721.555664062 77.77734375 l 1
 721.555664062 22.22265625 l 1
 554.888671875 22.22265625 l 1
 388.221679688 22.22265625 l 1
 388.221679688 77.77734375 l 1
 388.221679688 133.333007812 l 1
 332.666992188 133.333007812 l 1
 277.111328125 133.333007812 l 1
 277.111328125 -33.3330078125 l 1
 277.111328125 -200 l 1
 221.555664062 -200 l 1
 166 -200 l 1
 166 244.444335938 l 1
721.555664062 355.555664062 m 1
 721.555664062 577.77734375 l 1
 554.888671875 577.77734375 l 1
 388.221679688 577.77734375 l 1
 388.221679688 522.22265625 l 1
 388.221679688 466.666992188 l 1
 332.666992188 466.666992188 l 1
 277.111328125 466.666992188 l 1
 277.111328125 355.555664062 l 1
 277.111328125 244.444335938 l 1
 332.666992188 244.444335938 l 1
 388.221679688 244.444335938 l 1
 388.221679688 188.888671875 l 1
 388.221679688 133.333007812 l 1
 554.888671875 133.333007812 l 1
 721.555664062 133.333007812 l 1
 721.555664062 355.555664062 l 1
EndSplineSet
EndChar

StartChar: r
Encoding: 114 114 14
Width: 1000
Flags: HW
LayerCount: 2
Back
Fore
SplineSet
166 522.22265625 m 1
 166 577.77734375 l 1
 221.555664062 577.77734375 l 1
 277.111328125 577.77734375 l 1
 277.111328125 522.22265625 l 1
 277.111328125 466.666992188 l 1
 332.666992188 466.666992188 l 1
 388.221679688 466.666992188 l 1
 388.221679688 522.22265625 l 1
 388.221679688 577.77734375 l 1
 554.888671875 577.77734375 l 1
 721.555664062 577.77734375 l 1
 721.555664062 522.22265625 l 1
 721.555664062 466.666992188 l 1
 777.111328125 466.666992188 l 1
 832.666992188 466.666992188 l 1
 832.666992188 411.111328125 l 1
 832.666992188 355.555664062 l 1
 777.111328125 355.555664062 l 1
 721.555664062 355.555664062 l 1
 721.555664062 411.111328125 l 1
 721.555664062 466.666992188 l 1
 554.888671875 466.666992188 l 1
 388.221679688 466.666992188 l 1
 388.221679688 188.888671875 l 1
 388.221679688 -88.888671875 l 1
 443.77734375 -88.888671875 l 1
 499.333007812 -88.888671875 l 1
 499.333007812 -144.444335938 l 1
 499.333007812 -200 l 1
 332.666992188 -200 l 1
 166 -200 l 1
 166 -144.444335938 l 1
 166 -88.888671875 l 1
 221.555664062 -88.888671875 l 1
 277.111328125 -88.888671875 l 1
 277.111328125 188.888671875 l 1
 277.111328125 466.666992188 l 1
 221.555664062 466.666992188 l 1
 166 466.666992188 l 1
 166 522.22265625 l 1
EndSplineSet
EndChar

StartChar: s
Encoding: 115 115 15
Width: 1000
Flags: HW
LayerCount: 2
Back
Fore
SplineSet
277.111328125 522.22265625 m 1
 277.111328125 577.77734375 l 1
 554.888671875 577.77734375 l 1
 832.666992188 577.77734375 l 1
 832.666992188 522.22265625 l 1
 832.666992188 466.666992188 l 1
 554.888671875 466.666992188 l 1
 277.111328125 466.666992188 l 1
 277.111328125 355.555664062 l 1
 277.111328125 244.444335938 l 1
 499.333007812 244.444335938 l 1
 721.555664062 244.444335938 l 1
 721.555664062 188.888671875 l 1
 721.555664062 133.333007812 l 1
 777.111328125 133.333007812 l 1
 832.666992188 133.333007812 l 1
 832.666992188 22.22265625 l 1
 832.666992188 -88.888671875 l 1
 777.111328125 -88.888671875 l 1
 721.555664062 -88.888671875 l 1
 721.555664062 -144.444335938 l 1
 721.555664062 -200 l 1
 443.77734375 -200 l 1
 166 -200 l 1
 166 -144.444335938 l 1
 166 -88.888671875 l 1
 443.77734375 -88.888671875 l 1
 721.555664062 -88.888671875 l 1
 721.555664062 22.22265625 l 1
 721.555664062 133.333007812 l 1
 499.333007812 133.333007812 l 1
 277.111328125 133.333007812 l 1
 277.111328125 188.888671875 l 1
 277.111328125 244.444335938 l 1
 221.555664062 244.444335938 l 1
 166 244.444335938 l 1
 166 355.555664062 l 1
 166 466.666992188 l 1
 221.555664062 466.666992188 l 1
 277.111328125 466.666992188 l 1
 277.111328125 522.22265625 l 1
EndSplineSet
EndChar

StartChar: t
Encoding: 116 116 16
Width: 999
Flags: HW
LayerCount: 2
Back
Fore
SplineSet
444.110351562 688.888671875 m 1
 444.110351562 800 l 1
 499.666015625 800 l 1
 555.221679688 800 l 1
 555.221679688 688.888671875 l 1
 555.221679688 577.77734375 l 1
 610.77734375 577.77734375 l 1
 666.333007812 577.77734375 l 1
 666.333007812 522.22265625 l 1
 666.333007812 466.666992188 l 1
 610.77734375 466.666992188 l 1
 555.221679688 466.666992188 l 1
 555.221679688 188.888671875 l 1
 555.221679688 -88.888671875 l 1
 610.77734375 -88.888671875 l 1
 666.333007812 -88.888671875 l 1
 666.333007812 -144.444335938 l 1
 666.333007812 -200 l 1
 610.77734375 -200 l 1
 555.221679688 -200 l 1
 555.221679688 -144.444335938 l 1
 555.221679688 -88.888671875 l 1
 499.666015625 -88.888671875 l 1
 444.110351562 -88.888671875 l 1
 444.110351562 188.888671875 l 1
 444.110351562 466.666992188 l 1
 388.5546875 466.666992188 l 1
 333 466.666992188 l 1
 333 522.22265625 l 1
 333 577.77734375 l 1
 388.5546875 577.77734375 l 1
 444.110351562 577.77734375 l 1
 444.110351562 688.888671875 l 1
EndSplineSet
EndChar

StartChar: u
Encoding: 117 117 17
Width: 1000
Flags: HW
LayerCount: 2
Back
Fore
SplineSet
166 244.444335938 m 1
 166 577.77734375 l 1
 221.555664062 577.77734375 l 1
 277.111328125 577.77734375 l 1
 277.111328125 244.444335938 l 1
 277.111328125 -88.888671875 l 1
 443.77734375 -88.888671875 l 1
 610.444335938 -88.888671875 l 1
 610.444335938 -33.3330078125 l 1
 610.444335938 22.22265625 l 1
 666 22.22265625 l 1
 721.555664062 22.22265625 l 1
 721.555664062 300 l 1
 721.555664062 577.77734375 l 1
 777.111328125 577.77734375 l 1
 832.666992188 577.77734375 l 1
 832.666992188 188.888671875 l 1
 832.666992188 -200 l 1
 777.111328125 -200 l 1
 721.555664062 -200 l 1
 721.555664062 -144.444335938 l 1
 721.555664062 -88.888671875 l 1
 666 -88.888671875 l 1
 610.444335938 -88.888671875 l 1
 610.444335938 -144.444335938 l 1
 610.444335938 -200 l 1
 443.77734375 -200 l 1
 277.111328125 -200 l 1
 277.111328125 -144.444335938 l 1
 277.111328125 -88.888671875 l 1
 221.555664062 -88.888671875 l 1
 166 -88.888671875 l 1
 166 244.444335938 l 1
EndSplineSet
EndChar

StartChar: v
Encoding: 118 118 18
Width: 1000
Flags: HW
LayerCount: 2
Back
Fore
SplineSet
222 411.111328125 m 1
 222 577.77734375 l 1
 277.555664062 577.77734375 l 1
 333.111328125 577.77734375 l 1
 333.111328125 411.111328125 l 1
 333.111328125 244.444335938 l 1
 388.666015625 244.444335938 l 1
 444.221679688 244.444335938 l 1
 444.221679688 133.333007812 l 1
 444.221679688 22.22265625 l 1
 499.77734375 22.22265625 l 1
 555.333007812 22.22265625 l 1
 555.333007812 133.333007812 l 1
 555.333007812 244.444335938 l 1
 610.888671875 244.444335938 l 1
 666.444335938 244.444335938 l 1
 666.444335938 411.111328125 l 1
 666.444335938 577.77734375 l 1
 722 577.77734375 l 1
 777.555664062 577.77734375 l 1
 777.555664062 411.111328125 l 1
 777.555664062 244.444335938 l 1
 722 244.444335938 l 1
 666.444335938 244.444335938 l 1
 666.444335938 133.333007812 l 1
 666.444335938 22.22265625 l 1
 610.888671875 22.22265625 l 1
 555.333007812 22.22265625 l 1
 555.333007812 -88.888671875 l 1
 555.333007812 -200 l 1
 499.77734375 -200 l 1
 444.221679688 -200 l 1
 444.221679688 -88.888671875 l 1
 444.221679688 22.22265625 l 1
 388.666015625 22.22265625 l 1
 333.111328125 22.22265625 l 1
 333.111328125 133.333007812 l 1
 333.111328125 244.444335938 l 1
 277.555664062 244.444335938 l 1
 222 244.444335938 l 1
 222 411.111328125 l 1
EndSplineSet
EndChar

StartChar: w
Encoding: 119 119 19
Width: 1000
Flags: HW
LayerCount: 2
Back
Fore
SplineSet
222 188.888671875 m 1
 222 577.77734375 l 1
 277.555664062 577.77734375 l 1
 333.111328125 577.77734375 l 1
 333.111328125 411.111328125 l 1
 333.111328125 244.444335938 l 1
 388.666015625 244.444335938 l 1
 444.221679688 244.444335938 l 1
 444.221679688 355.555664062 l 1
 444.221679688 466.666992188 l 1
 499.77734375 466.666992188 l 1
 555.333007812 466.666992188 l 1
 555.333007812 355.555664062 l 1
 555.333007812 244.444335938 l 1
 610.888671875 244.444335938 l 1
 666.444335938 244.444335938 l 1
 666.444335938 411.111328125 l 1
 666.444335938 577.77734375 l 1
 722 577.77734375 l 1
 777.555664062 577.77734375 l 1
 777.555664062 188.888671875 l 1
 777.555664062 -200 l 1
 722 -200 l 1
 666.444335938 -200 l 1
 666.444335938 -88.888671875 l 1
 666.444335938 22.22265625 l 1
 610.888671875 22.22265625 l 1
 555.333007812 22.22265625 l 1
 555.333007812 133.333007812 l 1
 555.333007812 244.444335938 l 1
 499.77734375 244.444335938 l 1
 444.221679688 244.444335938 l 1
 444.221679688 133.333007812 l 1
 444.221679688 22.22265625 l 1
 388.666015625 22.22265625 l 1
 333.111328125 22.22265625 l 1
 333.111328125 -88.888671875 l 1
 333.111328125 -200 l 1
 277.555664062 -200 l 1
 222 -200 l 1
 222 188.888671875 l 1
EndSplineSet
EndChar

StartChar: z
Encoding: 122 122 20
Width: 1000
Flags: HW
LayerCount: 2
Back
Fore
SplineSet
166 522.22265625 m 1
 166 577.77734375 l 1
 499.333007812 577.77734375 l 1
 832.666992188 577.77734375 l 1
 832.666992188 522.22265625 l 1
 832.666992188 466.666992188 l 1
 777.111328125 466.666992188 l 1
 721.555664062 466.666992188 l 1
 721.555664062 411.111328125 l 1
 721.555664062 355.555664062 l 1
 666 355.555664062 l 1
 610.444335938 355.555664062 l 1
 610.444335938 300 l 1
 610.444335938 244.444335938 l 1
 554.888671875 244.444335938 l 1
 499.333007812 244.444335938 l 1
 499.333007812 188.888671875 l 1
 499.333007812 133.333007812 l 1
 443.77734375 133.333007812 l 1
 388.221679688 133.333007812 l 1
 388.221679688 77.77734375 l 1
 388.221679688 22.22265625 l 1
 332.666992188 22.22265625 l 1
 277.111328125 22.22265625 l 1
 277.111328125 -33.3330078125 l 1
 277.111328125 -88.888671875 l 1
 554.888671875 -88.888671875 l 1
 832.666992188 -88.888671875 l 1
 832.666992188 -144.444335938 l 1
 832.666992188 -200 l 1
 499.333007812 -200 l 1
 166 -200 l 1
 166 -88.888671875 l 1
 166 22.22265625 l 1
 221.555664062 22.22265625 l 1
 277.111328125 22.22265625 l 1
 277.111328125 77.77734375 l 1
 277.111328125 133.333007812 l 1
 332.666992188 133.333007812 l 1
 388.221679688 133.333007812 l 1
 388.221679688 188.888671875 l 1
 388.221679688 244.444335938 l 1
 443.77734375 244.444335938 l 1
 499.333007812 244.444335938 l 1
 499.333007812 300 l 1
 499.333007812 355.555664062 l 1
 554.888671875 355.555664062 l 1
 610.444335938 355.555664062 l 1
 610.444335938 411.111328125 l 1
 610.444335938 466.666992188 l 1
 388.221679688 466.666992188 l 1
 166 466.666992188 l 1
 166 522.22265625 l 1
EndSplineSet
EndChar

StartChar: A
Encoding: 65 65 21
Width: 1000
Flags: HW
LayerCount: 2
Back
Fore
SplineSet
277.111328125 744.444335938 m 1
 277.111328125 800 l 1
 499.333007812 800 l 1
 721.555664062 800 l 1
 721.555664062 744.444335938 l 1
 721.555664062 688.888671875 l 1
 777.111328125 688.888671875 l 1
 832.666992188 688.888671875 l 1
 832.666992188 244.444335938 l 1
 832.666992188 -200 l 1
 777.111328125 -200 l 1
 721.555664062 -200 l 1
 721.555664062 -33.3330078125 l 1
 721.555664062 133.333007812 l 1
 499.333007812 133.333007812 l 1
 277.111328125 133.333007812 l 1
 277.111328125 -33.3330078125 l 1
 277.111328125 -200 l 1
 221.555664062 -200 l 1
 166 -200 l 1
 166 244.444335938 l 1
 166 688.888671875 l 1
 221.555664062 688.888671875 l 1
 277.111328125 688.888671875 l 1
 277.111328125 744.444335938 l 1
610.444335938 633.333007812 m 1
 610.444335938 688.888671875 l 1
 499.333007812 688.888671875 l 1
 388.221679688 688.888671875 l 1
 388.221679688 633.333007812 l 1
 388.221679688 577.77734375 l 1
 332.666992188 577.77734375 l 1
 277.111328125 577.77734375 l 1
 277.111328125 411.111328125 l 1
 277.111328125 244.444335938 l 1
 499.333007812 244.444335938 l 1
 721.555664062 244.444335938 l 1
 721.555664062 411.111328125 l 1
 721.555664062 577.77734375 l 1
 666 577.77734375 l 1
 610.444335938 577.77734375 l 1
 610.444335938 633.333007812 l 1
EndSplineSet
EndChar

StartChar: B
Encoding: 66 66 22
Width: 1000
Flags: HW
LayerCount: 2
Back
Fore
SplineSet
166 300 m 1
 166 800 l 1
 443.77734375 800 l 1
 721.555664062 800 l 1
 721.555664062 744.444335938 l 1
 721.555664062 688.888671875 l 1
 777.111328125 688.888671875 l 1
 832.666992188 688.888671875 l 1
 832.666992188 522.22265625 l 1
 832.666992188 355.555664062 l 1
 777.111328125 355.555664062 l 1
 721.555664062 355.555664062 l 1
 721.555664062 300 l 1
 721.555664062 244.444335938 l 1
 777.111328125 244.444335938 l 1
 832.666992188 244.444335938 l 1
 832.666992188 77.77734375 l 1
 832.666992188 -88.888671875 l 1
 777.111328125 -88.888671875 l 1
 721.555664062 -88.888671875 l 1
 721.555664062 -144.444335938 l 1
 721.555664062 -200 l 1
 443.77734375 -200 l 1
 166 -200 l 1
 166 300 l 1
610.444335938 633.333007812 m 1
 610.444335938 688.888671875 l 1
 443.77734375 688.888671875 l 1
 277.111328125 688.888671875 l 1
 277.111328125 522.22265625 l 1
 277.111328125 355.555664062 l 1
 443.77734375 355.555664062 l 1
 610.444335938 355.555664062 l 1
 610.444335938 411.111328125 l 1
 610.444335938 466.666992188 l 1
 666 466.666992188 l 1
 721.555664062 466.666992188 l 1
 721.555664062 522.22265625 l 1
 721.555664062 577.77734375 l 1
 666 577.77734375 l 1
 610.444335938 577.77734375 l 1
 610.444335938 633.333007812 l 1
610.444335938 188.888671875 m 1
 610.444335938 244.444335938 l 1
 443.77734375 244.444335938 l 1
 277.111328125 244.444335938 l 1
 277.111328125 77.77734375 l 1
 277.111328125 -88.888671875 l 1
 443.77734375 -88.888671875 l 1
 610.444335938 -88.888671875 l 1
 610.444335938 -33.3330078125 l 1
 610.444335938 22.22265625 l 1
 666 22.22265625 l 1
 721.555664062 22.22265625 l 1
 721.555664062 77.77734375 l 1
 721.555664062 133.333007812 l 1
 666 133.333007812 l 1
 610.444335938 133.333007812 l 1
 610.444335938 188.888671875 l 1
EndSplineSet
EndChar

StartChar: C
Encoding: 67 67 23
Width: 1000
Flags: HW
LayerCount: 2
Back
Fore
SplineSet
277.111328125 744.444335938 m 1
 277.111328125 800 l 1
 499.333007812 800 l 1
 721.555664062 800 l 1
 721.555664062 744.444335938 l 1
 721.555664062 688.888671875 l 1
 777.111328125 688.888671875 l 1
 832.666992188 688.888671875 l 1
 832.666992188 577.77734375 l 1
 832.666992188 466.666992188 l 1
 777.111328125 466.666992188 l 1
 721.555664062 466.666992188 l 1
 721.555664062 522.22265625 l 1
 721.555664062 577.77734375 l 1
 666 577.77734375 l 1
 610.444335938 577.77734375 l 1
 610.444335938 633.333007812 l 1
 610.444335938 688.888671875 l 1
 499.333007812 688.888671875 l 1
 388.221679688 688.888671875 l 1
 388.221679688 633.333007812 l 1
 388.221679688 577.77734375 l 1
 332.666992188 577.77734375 l 1
 277.111328125 577.77734375 l 1
 277.111328125 300 l 1
 277.111328125 22.22265625 l 1
 332.666992188 22.22265625 l 1
 388.221679688 22.22265625 l 1
 388.221679688 -33.3330078125 l 1
 388.221679688 -88.888671875 l 1
 499.333007812 -88.888671875 l 1
 610.444335938 -88.888671875 l 1
 610.444335938 -33.3330078125 l 1
 610.444335938 22.22265625 l 1
 666 22.22265625 l 1
 721.555664062 22.22265625 l 1
 721.555664062 77.77734375 l 1
 721.555664062 133.333007812 l 1
 777.111328125 133.333007812 l 1
 832.666992188 133.333007812 l 1
 832.666992188 22.22265625 l 1
 832.666992188 -88.888671875 l 1
 777.111328125 -88.888671875 l 1
 721.555664062 -88.888671875 l 1
 721.555664062 -144.444335938 l 1
 721.555664062 -200 l 1
 499.333007812 -200 l 1
 277.111328125 -200 l 1
 277.111328125 -144.444335938 l 1
 277.111328125 -88.888671875 l 1
 221.555664062 -88.888671875 l 1
 166 -88.888671875 l 1
 166 300 l 1
 166 688.888671875 l 1
 221.555664062 688.888671875 l 1
 277.111328125 688.888671875 l 1
 277.111328125 744.444335938 l 1
EndSplineSet
EndChar

StartChar: D
Encoding: 68 68 24
Width: 1000
Flags: HW
LayerCount: 2
Back
Fore
SplineSet
166 300 m 1
 166 800 l 1
 443.77734375 800 l 1
 721.555664062 800 l 1
 721.555664062 744.444335938 l 1
 721.555664062 688.888671875 l 1
 777.111328125 688.888671875 l 1
 832.666992188 688.888671875 l 1
 832.666992188 300 l 1
 832.666992188 -88.888671875 l 1
 777.111328125 -88.888671875 l 1
 721.555664062 -88.888671875 l 1
 721.555664062 -144.444335938 l 1
 721.555664062 -200 l 1
 443.77734375 -200 l 1
 166 -200 l 1
 166 300 l 1
610.444335938 633.333007812 m 1
 610.444335938 688.888671875 l 1
 443.77734375 688.888671875 l 1
 277.111328125 688.888671875 l 1
 277.111328125 300 l 1
 277.111328125 -88.888671875 l 1
 443.77734375 -88.888671875 l 1
 610.444335938 -88.888671875 l 1
 610.444335938 -33.3330078125 l 1
 610.444335938 22.22265625 l 1
 666 22.22265625 l 1
 721.555664062 22.22265625 l 1
 721.555664062 300 l 1
 721.555664062 577.77734375 l 1
 666 577.77734375 l 1
 610.444335938 577.77734375 l 1
 610.444335938 633.333007812 l 1
EndSplineSet
EndChar

StartChar: E
Encoding: 69 69 25
Width: 1000
Flags: HW
LayerCount: 2
Back
Fore
SplineSet
166 300 m 1
 166 800 l 1
 499.333007812 800 l 1
 832.666992188 800 l 1
 832.666992188 744.444335938 l 1
 832.666992188 688.888671875 l 1
 554.888671875 688.888671875 l 1
 277.111328125 688.888671875 l 1
 277.111328125 522.22265625 l 1
 277.111328125 355.555664062 l 1
 443.77734375 355.555664062 l 1
 610.444335938 355.555664062 l 1
 610.444335938 300 l 1
 610.444335938 244.444335938 l 1
 443.77734375 244.444335938 l 1
 277.111328125 244.444335938 l 1
 277.111328125 77.77734375 l 1
 277.111328125 -88.888671875 l 1
 554.888671875 -88.888671875 l 1
 832.666992188 -88.888671875 l 1
 832.666992188 -144.444335938 l 1
 832.666992188 -200 l 1
 499.333007812 -200 l 1
 166 -200 l 1
 166 300 l 1
EndSplineSet
EndChar

StartChar: F
Encoding: 70 70 26
Width: 1000
Flags: HW
LayerCount: 2
Back
Fore
SplineSet
166 300 m 1
 166 800 l 1
 499.333007812 800 l 1
 832.666992188 800 l 1
 832.666992188 744.444335938 l 1
 832.666992188 688.888671875 l 1
 554.888671875 688.888671875 l 1
 277.111328125 688.888671875 l 1
 277.111328125 522.22265625 l 1
 277.111328125 355.555664062 l 1
 443.77734375 355.555664062 l 1
 610.444335938 355.555664062 l 1
 610.444335938 300 l 1
 610.444335938 244.444335938 l 1
 443.77734375 244.444335938 l 1
 277.111328125 244.444335938 l 1
 277.111328125 22.22265625 l 1
 277.111328125 -200 l 1
 221.555664062 -200 l 1
 166 -200 l 1
 166 300 l 1
EndSplineSet
EndChar

StartChar: G
Encoding: 71 71 27
Width: 1000
Flags: HW
LayerCount: 2
Back
Fore
SplineSet
277.111328125 744.444335938 m 1
 277.111328125 800 l 1
 499.333007812 800 l 1
 721.555664062 800 l 1
 721.555664062 744.444335938 l 1
 721.555664062 688.888671875 l 1
 777.111328125 688.888671875 l 1
 832.666992188 688.888671875 l 1
 832.666992188 633.333007812 l 1
 832.666992188 577.77734375 l 1
 721.555664062 577.77734375 l 1
 610.444335938 577.77734375 l 1
 610.444335938 633.333007812 l 1
 610.444335938 688.888671875 l 1
 499.333007812 688.888671875 l 1
 388.221679688 688.888671875 l 1
 388.221679688 633.333007812 l 1
 388.221679688 577.77734375 l 1
 332.666992188 577.77734375 l 1
 277.111328125 577.77734375 l 1
 277.111328125 300 l 1
 277.111328125 22.22265625 l 1
 332.666992188 22.22265625 l 1
 388.221679688 22.22265625 l 1
 388.221679688 -33.3330078125 l 1
 388.221679688 -88.888671875 l 1
 554.888671875 -88.888671875 l 1
 721.555664062 -88.888671875 l 1
 721.555664062 77.77734375 l 1
 721.555664062 244.444335938 l 1
 610.444335938 244.444335938 l 1
 499.333007812 244.444335938 l 1
 499.333007812 300 l 1
 499.333007812 355.555664062 l 1
 666 355.555664062 l 1
 832.666992188 355.555664062 l 1
 832.666992188 77.77734375 l 1
 832.666992188 -200 l 1
 554.888671875 -200 l 1
 277.111328125 -200 l 1
 277.111328125 -144.444335938 l 1
 277.111328125 -88.888671875 l 1
 221.555664062 -88.888671875 l 1
 166 -88.888671875 l 1
 166 300 l 1
 166 688.888671875 l 1
 221.555664062 688.888671875 l 1
 277.111328125 688.888671875 l 1
 277.111328125 744.444335938 l 1
EndSplineSet
EndChar

StartChar: H
Encoding: 72 72 28
Width: 1000
Flags: HW
LayerCount: 2
Back
Fore
SplineSet
166 300 m 1
 166 800 l 1
 221.555664062 800 l 1
 277.111328125 800 l 1
 277.111328125 577.77734375 l 1
 277.111328125 355.555664062 l 1
 499.333007812 355.555664062 l 1
 721.555664062 355.555664062 l 1
 721.555664062 577.77734375 l 1
 721.555664062 800 l 1
 777.111328125 800 l 1
 832.666992188 800 l 1
 832.666992188 300 l 1
 832.666992188 -200 l 1
 777.111328125 -200 l 1
 721.555664062 -200 l 1
 721.555664062 22.22265625 l 1
 721.555664062 244.444335938 l 1
 499.333007812 244.444335938 l 1
 277.111328125 244.444335938 l 1
 277.111328125 22.22265625 l 1
 277.111328125 -200 l 1
 221.555664062 -200 l 1
 166 -200 l 1
 166 300 l 1
EndSplineSet
EndChar

StartChar: I
Encoding: 73 73 29
Width: 1000
Flags: HW
LayerCount: 2
Back
Fore
SplineSet
222 744.444335938 m 1
 222 800 l 1
 499.77734375 800 l 1
 777.555664062 800 l 1
 777.555664062 744.444335938 l 1
 777.555664062 688.888671875 l 1
 666.444335938 688.888671875 l 1
 555.333007812 688.888671875 l 1
 555.333007812 300 l 1
 555.333007812 -88.888671875 l 1
 666.444335938 -88.888671875 l 1
 777.555664062 -88.888671875 l 1
 777.555664062 -144.444335938 l 1
 777.555664062 -200 l 1
 499.77734375 -200 l 1
 222 -200 l 1
 222 -144.444335938 l 1
 222 -88.888671875 l 1
 333.111328125 -88.888671875 l 1
 444.221679688 -88.888671875 l 1
 444.221679688 300 l 1
 444.221679688 688.888671875 l 1
 333.111328125 688.888671875 l 1
 222 688.888671875 l 1
 222 744.444335938 l 1
EndSplineSet
EndChar

StartChar: K
Encoding: 75 75 30
Width: 1000
Flags: HW
LayerCount: 2
Back
Fore
SplineSet
166 300 m 1
 166 800 l 1
 221.555664062 800 l 1
 277.111328125 800 l 1
 277.111328125 577.77734375 l 1
 277.111328125 355.555664062 l 1
 332.666992188 355.555664062 l 1
 388.221679688 355.555664062 l 1
 388.221679688 411.111328125 l 1
 388.221679688 466.666992188 l 1
 443.77734375 466.666992188 l 1
 499.333007812 466.666992188 l 1
 499.333007812 522.22265625 l 1
 499.333007812 577.77734375 l 1
 554.888671875 577.77734375 l 1
 610.444335938 577.77734375 l 1
 610.444335938 633.333007812 l 1
 610.444335938 688.888671875 l 1
 666 688.888671875 l 1
 721.555664062 688.888671875 l 1
 721.555664062 744.444335938 l 1
 721.555664062 800 l 1
 777.111328125 800 l 1
 832.666992188 800 l 1
 832.666992188 688.888671875 l 1
 832.666992188 577.77734375 l 1
 777.111328125 577.77734375 l 1
 721.555664062 577.77734375 l 1
 721.555664062 522.22265625 l 1
 721.555664062 466.666992188 l 1
 666 466.666992188 l 1
 610.444335938 466.666992188 l 1
 610.444335938 411.111328125 l 1
 610.444335938 355.555664062 l 1
 554.888671875 355.555664062 l 1
 499.333007812 355.555664062 l 1
 499.333007812 300 l 1
 499.333007812 244.444335938 l 1
 554.888671875 244.444335938 l 1
 610.444335938 244.444335938 l 1
 610.444335938 188.888671875 l 1
 610.444335938 133.333007812 l 1
 666 133.333007812 l 1
 721.555664062 133.333007812 l 1
 721.555664062 77.77734375 l 1
 721.555664062 22.22265625 l 1
 777.111328125 22.22265625 l 1
 832.666992188 22.22265625 l 1
 832.666992188 -88.888671875 l 1
 832.666992188 -200 l 1
 777.111328125 -200 l 1
 721.555664062 -200 l 1
 721.555664062 -144.444335938 l 1
 721.555664062 -88.888671875 l 1
 666 -88.888671875 l 1
 610.444335938 -88.888671875 l 1
 610.444335938 -33.3330078125 l 1
 610.444335938 22.22265625 l 1
 554.888671875 22.22265625 l 1
 499.333007812 22.22265625 l 1
 499.333007812 77.77734375 l 1
 499.333007812 133.333007812 l 1
 443.77734375 133.333007812 l 1
 388.221679688 133.333007812 l 1
 388.221679688 188.888671875 l 1
 388.221679688 244.444335938 l 1
 332.666992188 244.444335938 l 1
 277.111328125 244.444335938 l 1
 277.111328125 22.22265625 l 1
 277.111328125 -200 l 1
 221.555664062 -200 l 1
 166 -200 l 1
 166 300 l 1
EndSplineSet
EndChar

StartChar: L
Encoding: 76 76 31
Width: 1000
Flags: HW
LayerCount: 2
Back
Fore
SplineSet
166 300 m 1
 166 800 l 1
 221.555664062 800 l 1
 277.111328125 800 l 1
 277.111328125 355.555664062 l 1
 277.111328125 -88.888671875 l 1
 554.888671875 -88.888671875 l 1
 832.666992188 -88.888671875 l 1
 832.666992188 -144.444335938 l 1
 832.666992188 -200 l 1
 499.333007812 -200 l 1
 166 -200 l 1
 166 300 l 1
EndSplineSet
EndChar

StartChar: M
Encoding: 77 77 32
Width: 1000
Flags: HW
LayerCount: 2
Back
Fore
SplineSet
166 300 m 1
 166 800 l 1
 221.555664062 800 l 1
 277.111328125 800 l 1
 277.111328125 744.444335938 l 1
 277.111328125 688.888671875 l 1
 332.666992188 688.888671875 l 1
 388.221679688 688.888671875 l 1
 388.221679688 577.77734375 l 1
 388.221679688 466.666992188 l 1
 499.333007812 466.666992188 l 1
 610.444335938 466.666992188 l 1
 610.444335938 577.77734375 l 1
 610.444335938 688.888671875 l 1
 666 688.888671875 l 1
 721.555664062 688.888671875 l 1
 721.555664062 744.444335938 l 1
 721.555664062 800 l 1
 777.111328125 800 l 1
 832.666992188 800 l 1
 832.666992188 300 l 1
 832.666992188 -200 l 1
 777.111328125 -200 l 1
 721.555664062 -200 l 1
 721.555664062 133.333007812 l 1
 721.555664062 466.666992188 l 1
 666 466.666992188 l 1
 610.444335938 466.666992188 l 1
 610.444335938 355.555664062 l 1
 610.444335938 244.444335938 l 1
 499.333007812 244.444335938 l 1
 388.221679688 244.444335938 l 1
 388.221679688 355.555664062 l 1
 388.221679688 466.666992188 l 1
 332.666992188 466.666992188 l 1
 277.111328125 466.666992188 l 1
 277.111328125 133.333007812 l 1
 277.111328125 -200 l 1
 221.555664062 -200 l 1
 166 -200 l 1
 166 300 l 1
EndSplineSet
EndChar

StartChar: N
Encoding: 78 78 33
Width: 1000
Flags: HW
LayerCount: 2
Back
Fore
SplineSet
166 300 m 1
 166 800 l 1
 221.555664062 800 l 1
 277.111328125 800 l 1
 277.111328125 744.444335938 l 1
 277.111328125 688.888671875 l 1
 332.666992188 688.888671875 l 1
 388.221679688 688.888671875 l 1
 388.221679688 577.77734375 l 1
 388.221679688 466.666992188 l 1
 443.77734375 466.666992188 l 1
 499.333007812 466.666992188 l 1
 499.333007812 355.555664062 l 1
 499.333007812 244.444335938 l 1
 554.888671875 244.444335938 l 1
 610.444335938 244.444335938 l 1
 610.444335938 133.333007812 l 1
 610.444335938 22.22265625 l 1
 666 22.22265625 l 1
 721.555664062 22.22265625 l 1
 721.555664062 411.111328125 l 1
 721.555664062 800 l 1
 777.111328125 800 l 1
 832.666992188 800 l 1
 832.666992188 300 l 1
 832.666992188 -200 l 1
 721.555664062 -200 l 1
 610.444335938 -200 l 1
 610.444335938 -88.888671875 l 1
 610.444335938 22.22265625 l 1
 554.888671875 22.22265625 l 1
 499.333007812 22.22265625 l 1
 499.333007812 133.333007812 l 1
 499.333007812 244.444335938 l 1
 443.77734375 244.444335938 l 1
 388.221679688 244.444335938 l 1
 388.221679688 355.555664062 l 1
 388.221679688 466.666992188 l 1
 332.666992188 466.666992188 l 1
 277.111328125 466.666992188 l 1
 277.111328125 133.333007812 l 1
 277.111328125 -200 l 1
 221.555664062 -200 l 1
 166 -200 l 1
 166 300 l 1
EndSplineSet
EndChar

StartChar: O
Encoding: 79 79 34
Width: 1000
Flags: HW
LayerCount: 2
Back
Fore
SplineSet
277.111328125 744.444335938 m 1
 277.111328125 800 l 1
 499.333007812 800 l 1
 721.555664062 800 l 1
 721.555664062 744.444335938 l 1
 721.555664062 688.888671875 l 1
 777.111328125 688.888671875 l 1
 832.666992188 688.888671875 l 1
 832.666992188 300 l 1
 832.666992188 -88.888671875 l 1
 777.111328125 -88.888671875 l 1
 721.555664062 -88.888671875 l 1
 721.555664062 -144.444335938 l 1
 721.555664062 -200 l 1
 499.333007812 -200 l 1
 277.111328125 -200 l 1
 277.111328125 -144.444335938 l 1
 277.111328125 -88.888671875 l 1
 221.555664062 -88.888671875 l 1
 166 -88.888671875 l 1
 166 300 l 1
 166 688.888671875 l 1
 221.555664062 688.888671875 l 1
 277.111328125 688.888671875 l 1
 277.111328125 744.444335938 l 1
610.444335938 633.333007812 m 1
 610.444335938 688.888671875 l 1
 499.333007812 688.888671875 l 1
 388.221679688 688.888671875 l 1
 388.221679688 633.333007812 l 1
 388.221679688 577.77734375 l 1
 332.666992188 577.77734375 l 1
 277.111328125 577.77734375 l 1
 277.111328125 300 l 1
 277.111328125 22.22265625 l 1
 332.666992188 22.22265625 l 1
 388.221679688 22.22265625 l 1
 388.221679688 -33.3330078125 l 1
 388.221679688 -88.888671875 l 1
 499.333007812 -88.888671875 l 1
 610.444335938 -88.888671875 l 1
 610.444335938 -33.3330078125 l 1
 610.444335938 22.22265625 l 1
 666 22.22265625 l 1
 721.555664062 22.22265625 l 1
 721.555664062 300 l 1
 721.555664062 577.77734375 l 1
 666 577.77734375 l 1
 610.444335938 577.77734375 l 1
 610.444335938 633.333007812 l 1
EndSplineSet
EndChar

StartChar: P
Encoding: 80 80 35
Width: 1000
Flags: HW
LayerCount: 2
Back
Fore
SplineSet
166 300 m 1
 166 800 l 1
 443.77734375 800 l 1
 721.555664062 800 l 1
 721.555664062 744.444335938 l 1
 721.555664062 688.888671875 l 1
 777.111328125 688.888671875 l 1
 832.666992188 688.888671875 l 1
 832.666992188 522.22265625 l 1
 832.666992188 355.555664062 l 1
 777.111328125 355.555664062 l 1
 721.555664062 355.555664062 l 1
 721.555664062 300 l 1
 721.555664062 244.444335938 l 1
 499.333007812 244.444335938 l 1
 277.111328125 244.444335938 l 1
 277.111328125 22.22265625 l 1
 277.111328125 -200 l 1
 221.555664062 -200 l 1
 166 -200 l 1
 166 300 l 1
610.444335938 633.333007812 m 1
 610.444335938 688.888671875 l 1
 443.77734375 688.888671875 l 1
 277.111328125 688.888671875 l 1
 277.111328125 522.22265625 l 1
 277.111328125 355.555664062 l 1
 443.77734375 355.555664062 l 1
 610.444335938 355.555664062 l 1
 610.444335938 411.111328125 l 1
 610.444335938 466.666992188 l 1
 666 466.666992188 l 1
 721.555664062 466.666992188 l 1
 721.555664062 522.22265625 l 1
 721.555664062 577.77734375 l 1
 666 577.77734375 l 1
 610.444335938 577.77734375 l 1
 610.444335938 633.333007812 l 1
EndSplineSet
EndChar

StartChar: Q
Encoding: 81 81 36
Width: 1000
Flags: HW
LayerCount: 2
Back
Fore
SplineSet
388.221679688 188.888671875 m 1
 388.221679688 244.444335938 l 1
 443.77734375 244.444335938 l 1
 499.333007812 244.444335938 l 1
 499.333007812 188.888671875 l 1
 499.333007812 133.333007812 l 1
 554.888671875 133.333007812 l 1
 610.444335938 133.333007812 l 1
 610.444335938 77.77734375 l 1
 610.444335938 22.22265625 l 1
 554.888671875 22.22265625 l 1
 499.333007812 22.22265625 l 1
 499.333007812 77.77734375 l 1
 499.333007812 133.333007812 l 1
 443.77734375 133.333007812 l 1
 388.221679688 133.333007812 l 1
 388.221679688 188.888671875 l 1
277.111328125 744.444335938 m 1
 277.111328125 800 l 1
 499.333007812 800 l 1
 721.555664062 800 l 1
 721.555664062 744.444335938 l 1
 721.555664062 688.888671875 l 1
 777.111328125 688.888671875 l 1
 832.666992188 688.888671875 l 1
 832.666992188 355.555664062 l 1
 832.666992188 22.22265625 l 1
 777.111328125 22.22265625 l 1
 721.555664062 22.22265625 l 1
 721.555664062 -33.3330078125 l 1
 721.555664062 -88.888671875 l 1
 777.111328125 -88.888671875 l 1
 832.666992188 -88.888671875 l 1
 832.666992188 -144.444335938 l 1
 832.666992188 -200 l 1
 777.111328125 -200 l 1
 721.555664062 -200 l 1
 721.555664062 -144.444335938 l 1
 721.555664062 -88.888671875 l 1
 666 -88.888671875 l 1
 610.444335938 -88.888671875 l 1
 610.444335938 -144.444335938 l 1
 610.444335938 -200 l 1
 443.77734375 -200 l 1
 277.111328125 -200 l 1
 277.111328125 -144.444335938 l 1
 277.111328125 -88.888671875 l 1
 221.555664062 -88.888671875 l 1
 166 -88.888671875 l 1
 166 300 l 1
 166 688.888671875 l 1
 221.555664062 688.888671875 l 1
 277.111328125 688.888671875 l 1
 277.111328125 744.444335938 l 1
610.444335938 633.333007812 m 1
 610.444335938 688.888671875 l 1
 499.333007812 688.888671875 l 1
 388.221679688 688.888671875 l 1
 388.221679688 633.333007812 l 1
 388.221679688 577.77734375 l 1
 332.666992188 577.77734375 l 1
 277.111328125 577.77734375 l 1
 277.111328125 300 l 1
 277.111328125 22.22265625 l 1
 332.666992188 22.22265625 l 1
 388.221679688 22.22265625 l 1
 388.221679688 -33.3330078125 l 1
 388.221679688 -88.888671875 l 1
 499.333007812 -88.888671875 l 1
 610.444335938 -88.888671875 l 1
 610.444335938 -33.3330078125 l 1
 610.444335938 22.22265625 l 1
 666 22.22265625 l 1
 721.555664062 22.22265625 l 1
 721.555664062 300 l 1
 721.555664062 577.77734375 l 1
 666 577.77734375 l 1
 610.444335938 577.77734375 l 1
 610.444335938 633.333007812 l 1
EndSplineSet
EndChar

StartChar: R
Encoding: 82 82 37
Width: 1000
Flags: HW
LayerCount: 2
Back
Fore
SplineSet
166 300 m 1
 166 800 l 1
 443.77734375 800 l 1
 721.555664062 800 l 1
 721.555664062 744.444335938 l 1
 721.555664062 688.888671875 l 1
 777.111328125 688.888671875 l 1
 832.666992188 688.888671875 l 1
 832.666992188 522.22265625 l 1
 832.666992188 355.555664062 l 1
 777.111328125 355.555664062 l 1
 721.555664062 355.555664062 l 1
 721.555664062 300 l 1
 721.555664062 244.444335938 l 1
 610.444335938 244.444335938 l 1
 499.333007812 244.444335938 l 1
 499.333007812 188.888671875 l 1
 499.333007812 133.333007812 l 1
 554.888671875 133.333007812 l 1
 610.444335938 133.333007812 l 1
 610.444335938 77.77734375 l 1
 610.444335938 22.22265625 l 1
 666 22.22265625 l 1
 721.555664062 22.22265625 l 1
 721.555664062 -33.3330078125 l 1
 721.555664062 -88.888671875 l 1
 777.111328125 -88.888671875 l 1
 832.666992188 -88.888671875 l 1
 832.666992188 -144.444335938 l 1
 832.666992188 -200 l 1
 721.555664062 -200 l 1
 610.444335938 -200 l 1
 610.444335938 -144.444335938 l 1
 610.444335938 -88.888671875 l 1
 554.888671875 -88.888671875 l 1
 499.333007812 -88.888671875 l 1
 499.333007812 -33.3330078125 l 1
 499.333007812 22.22265625 l 1
 443.77734375 22.22265625 l 1
 388.221679688 22.22265625 l 1
 388.221679688 77.77734375 l 1
 388.221679688 133.333007812 l 1
 332.666992188 133.333007812 l 1
 277.111328125 133.333007812 l 1
 277.111328125 -33.3330078125 l 1
 277.111328125 -200 l 1
 221.555664062 -200 l 1
 166 -200 l 1
 166 300 l 1
610.444335938 633.333007812 m 1
 610.444335938 688.888671875 l 1
 443.77734375 688.888671875 l 1
 277.111328125 688.888671875 l 1
 277.111328125 522.22265625 l 1
 277.111328125 355.555664062 l 1
 443.77734375 355.555664062 l 1
 610.444335938 355.555664062 l 1
 610.444335938 411.111328125 l 1
 610.444335938 466.666992188 l 1
 666 466.666992188 l 1
 721.555664062 466.666992188 l 1
 721.555664062 522.22265625 l 1
 721.555664062 577.77734375 l 1
 666 577.77734375 l 1
 610.444335938 577.77734375 l 1
 610.444335938 633.333007812 l 1
EndSplineSet
EndChar

StartChar: S
Encoding: 83 83 38
Width: 1000
Flags: HW
LayerCount: 2
Back
Fore
SplineSet
277.111328125 744.444335938 m 1
 277.111328125 800 l 1
 499.333007812 800 l 1
 721.555664062 800 l 1
 721.555664062 744.444335938 l 1
 721.555664062 688.888671875 l 1
 777.111328125 688.888671875 l 1
 832.666992188 688.888671875 l 1
 832.666992188 577.77734375 l 1
 832.666992188 466.666992188 l 1
 777.111328125 466.666992188 l 1
 721.555664062 466.666992188 l 1
 721.555664062 522.22265625 l 1
 721.555664062 577.77734375 l 1
 666 577.77734375 l 1
 610.444335938 577.77734375 l 1
 610.444335938 633.333007812 l 1
 610.444335938 688.888671875 l 1
 499.333007812 688.888671875 l 1
 388.221679688 688.888671875 l 1
 388.221679688 633.333007812 l 1
 388.221679688 577.77734375 l 1
 332.666992188 577.77734375 l 1
 277.111328125 577.77734375 l 1
 277.111328125 522.22265625 l 1
 277.111328125 466.666992188 l 1
 332.666992188 466.666992188 l 1
 388.221679688 466.666992188 l 1
 388.221679688 411.111328125 l 1
 388.221679688 355.555664062 l 1
 554.888671875 355.555664062 l 1
 721.555664062 355.555664062 l 1
 721.555664062 300 l 1
 721.555664062 244.444335938 l 1
 777.111328125 244.444335938 l 1
 832.666992188 244.444335938 l 1
 832.666992188 77.77734375 l 1
 832.666992188 -88.888671875 l 1
 777.111328125 -88.888671875 l 1
 721.555664062 -88.888671875 l 1
 721.555664062 -144.444335938 l 1
 721.555664062 -200 l 1
 499.333007812 -200 l 1
 277.111328125 -200 l 1
 277.111328125 -144.444335938 l 1
 277.111328125 -88.888671875 l 1
 221.555664062 -88.888671875 l 1
 166 -88.888671875 l 1
 166 22.22265625 l 1
 166 133.333007812 l 1
 221.555664062 133.333007812 l 1
 277.111328125 133.333007812 l 1
 277.111328125 77.77734375 l 1
 277.111328125 22.22265625 l 1
 332.666992188 22.22265625 l 1
 388.221679688 22.22265625 l 1
 388.221679688 -33.3330078125 l 1
 388.221679688 -88.888671875 l 1
 499.333007812 -88.888671875 l 1
 610.444335938 -88.888671875 l 1
 610.444335938 -33.3330078125 l 1
 610.444335938 22.22265625 l 1
 666 22.22265625 l 1
 721.555664062 22.22265625 l 1
 721.555664062 77.77734375 l 1
 721.555664062 133.333007812 l 1
 666 133.333007812 l 1
 610.444335938 133.333007812 l 1
 610.444335938 188.888671875 l 1
 610.444335938 244.444335938 l 1
 443.77734375 244.444335938 l 1
 277.111328125 244.444335938 l 1
 277.111328125 300 l 1
 277.111328125 355.555664062 l 1
 221.555664062 355.555664062 l 1
 166 355.555664062 l 1
 166 522.22265625 l 1
 166 688.888671875 l 1
 221.555664062 688.888671875 l 1
 277.111328125 688.888671875 l 1
 277.111328125 744.444335938 l 1
EndSplineSet
EndChar

StartChar: T
Encoding: 84 84 39
Width: 1000
Flags: HW
LayerCount: 2
Back
Fore
SplineSet
222 744.444335938 m 1
 222 800 l 1
 499.77734375 800 l 1
 777.555664062 800 l 1
 777.555664062 744.444335938 l 1
 777.555664062 688.888671875 l 1
 666.444335938 688.888671875 l 1
 555.333007812 688.888671875 l 1
 555.333007812 244.444335938 l 1
 555.333007812 -200 l 1
 499.77734375 -200 l 1
 444.221679688 -200 l 1
 444.221679688 244.444335938 l 1
 444.221679688 688.888671875 l 1
 333.111328125 688.888671875 l 1
 222 688.888671875 l 1
 222 744.444335938 l 1
EndSplineSet
EndChar

StartChar: U
Encoding: 85 85 40
Width: 1000
Flags: HW
LayerCount: 2
Back
Fore
SplineSet
166 355.555664062 m 1
 166 800 l 1
 221.555664062 800 l 1
 277.111328125 800 l 1
 277.111328125 411.111328125 l 1
 277.111328125 22.22265625 l 1
 332.666992188 22.22265625 l 1
 388.221679688 22.22265625 l 1
 388.221679688 -33.3330078125 l 1
 388.221679688 -88.888671875 l 1
 499.333007812 -88.888671875 l 1
 610.444335938 -88.888671875 l 1
 610.444335938 -33.3330078125 l 1
 610.444335938 22.22265625 l 1
 666 22.22265625 l 1
 721.555664062 22.22265625 l 1
 721.555664062 411.111328125 l 1
 721.555664062 800 l 1
 777.111328125 800 l 1
 832.666992188 800 l 1
 832.666992188 355.555664062 l 1
 832.666992188 -88.888671875 l 1
 777.111328125 -88.888671875 l 1
 721.555664062 -88.888671875 l 1
 721.555664062 -144.444335938 l 1
 721.555664062 -200 l 1
 499.333007812 -200 l 1
 277.111328125 -200 l 1
 277.111328125 -144.444335938 l 1
 277.111328125 -88.888671875 l 1
 221.555664062 -88.888671875 l 1
 166 -88.888671875 l 1
 166 355.555664062 l 1
EndSplineSet
EndChar

StartChar: V
Encoding: 86 86 41
Width: 1000
Flags: HW
LayerCount: 2
Back
Fore
SplineSet
166 522.22265625 m 1
 166 800 l 1
 221.555664062 800 l 1
 277.111328125 800 l 1
 277.111328125 522.22265625 l 1
 277.111328125 244.444335938 l 1
 332.666992188 244.444335938 l 1
 388.221679688 244.444335938 l 1
 388.221679688 133.333007812 l 1
 388.221679688 22.22265625 l 1
 499.333007812 22.22265625 l 1
 610.444335938 22.22265625 l 1
 610.444335938 133.333007812 l 1
 610.444335938 244.444335938 l 1
 666 244.444335938 l 1
 721.555664062 244.444335938 l 1
 721.555664062 522.22265625 l 1
 721.555664062 800 l 1
 777.111328125 800 l 1
 832.666992188 800 l 1
 832.666992188 522.22265625 l 1
 832.666992188 244.444335938 l 1
 777.111328125 244.444335938 l 1
 721.555664062 244.444335938 l 1
 721.555664062 133.333007812 l 1
 721.555664062 22.22265625 l 1
 666 22.22265625 l 1
 610.444335938 22.22265625 l 1
 610.444335938 -88.888671875 l 1
 610.444335938 -200 l 1
 499.333007812 -200 l 1
 388.221679688 -200 l 1
 388.221679688 -88.888671875 l 1
 388.221679688 22.22265625 l 1
 332.666992188 22.22265625 l 1
 277.111328125 22.22265625 l 1
 277.111328125 133.333007812 l 1
 277.111328125 244.444335938 l 1
 221.555664062 244.444335938 l 1
 166 244.444335938 l 1
 166 522.22265625 l 1
EndSplineSet
EndChar

StartChar: W
Encoding: 87 87 42
Width: 1000
Flags: HW
LayerCount: 2
Back
Fore
SplineSet
166 355.555664062 m 1
 166 800 l 1
 221.555664062 800 l 1
 277.111328125 800 l 1
 277.111328125 355.555664062 l 1
 277.111328125 -88.888671875 l 1
 332.666992188 -88.888671875 l 1
 388.221679688 -88.888671875 l 1
 388.221679688 22.22265625 l 1
 388.221679688 133.333007812 l 1
 499.333007812 133.333007812 l 1
 610.444335938 133.333007812 l 1
 610.444335938 22.22265625 l 1
 610.444335938 -88.888671875 l 1
 666 -88.888671875 l 1
 721.555664062 -88.888671875 l 1
 721.555664062 355.555664062 l 1
 721.555664062 800 l 1
 777.111328125 800 l 1
 832.666992188 800 l 1
 832.666992188 355.555664062 l 1
 832.666992188 -88.888671875 l 1
 777.111328125 -88.888671875 l 1
 721.555664062 -88.888671875 l 1
 721.555664062 -144.444335938 l 1
 721.555664062 -200 l 1
 666 -200 l 1
 610.444335938 -200 l 1
 610.444335938 -144.444335938 l 1
 610.444335938 -88.888671875 l 1
 499.333007812 -88.888671875 l 1
 388.221679688 -88.888671875 l 1
 388.221679688 -144.444335938 l 1
 388.221679688 -200 l 1
 332.666992188 -200 l 1
 277.111328125 -200 l 1
 277.111328125 -144.444335938 l 1
 277.111328125 -88.888671875 l 1
 221.555664062 -88.888671875 l 1
 166 -88.888671875 l 1
 166 355.555664062 l 1
EndSplineSet
EndChar

StartChar: X
Encoding: 88 88 43
Width: 1000
Flags: HW
LayerCount: 2
Back
Fore
SplineSet
166 688.888671875 m 1
 166 800 l 1
 221.555664062 800 l 1
 277.111328125 800 l 1
 277.111328125 688.888671875 l 1
 277.111328125 577.77734375 l 1
 332.666992188 577.77734375 l 1
 388.221679688 577.77734375 l 1
 388.221679688 466.666992188 l 1
 388.221679688 355.555664062 l 1
 499.333007812 355.555664062 l 1
 610.444335938 355.555664062 l 1
 610.444335938 466.666992188 l 1
 610.444335938 577.77734375 l 1
 666 577.77734375 l 1
 721.555664062 577.77734375 l 1
 721.555664062 688.888671875 l 1
 721.555664062 800 l 1
 777.111328125 800 l 1
 832.666992188 800 l 1
 832.666992188 688.888671875 l 1
 832.666992188 577.77734375 l 1
 777.111328125 577.77734375 l 1
 721.555664062 577.77734375 l 1
 721.555664062 466.666992188 l 1
 721.555664062 355.555664062 l 1
 666 355.555664062 l 1
 610.444335938 355.555664062 l 1
 610.444335938 300 l 1
 610.444335938 244.444335938 l 1
 666 244.444335938 l 1
 721.555664062 244.444335938 l 1
 721.555664062 133.333007812 l 1
 721.555664062 22.22265625 l 1
 777.111328125 22.22265625 l 1
 832.666992188 22.22265625 l 1
 832.666992188 -88.888671875 l 1
 832.666992188 -200 l 1
 777.111328125 -200 l 1
 721.555664062 -200 l 1
 721.555664062 -88.888671875 l 1
 721.555664062 22.22265625 l 1
 666 22.22265625 l 1
 610.444335938 22.22265625 l 1
 610.444335938 133.333007812 l 1
 610.444335938 244.444335938 l 1
 499.333007812 244.444335938 l 1
 388.221679688 244.444335938 l 1
 388.221679688 133.333007812 l 1
 388.221679688 22.22265625 l 1
 332.666992188 22.22265625 l 1
 277.111328125 22.22265625 l 1
 277.111328125 -88.888671875 l 1
 277.111328125 -200 l 1
 221.555664062 -200 l 1
 166 -200 l 1
 166 -88.888671875 l 1
 166 22.22265625 l 1
 221.555664062 22.22265625 l 1
 277.111328125 22.22265625 l 1
 277.111328125 133.333007812 l 1
 277.111328125 244.444335938 l 1
 332.666992188 244.444335938 l 1
 388.221679688 244.444335938 l 1
 388.221679688 300 l 1
 388.221679688 355.555664062 l 1
 332.666992188 355.555664062 l 1
 277.111328125 355.555664062 l 1
 277.111328125 466.666992188 l 1
 277.111328125 577.77734375 l 1
 221.555664062 577.77734375 l 1
 166 577.77734375 l 1
 166 688.888671875 l 1
EndSplineSet
EndChar

StartChar: Y
Encoding: 89 89 44
Width: 1000
Flags: HW
LayerCount: 2
Back
Fore
SplineSet
222 688.888671875 m 1
 222 800 l 1
 277.555664062 800 l 1
 333.111328125 800 l 1
 333.111328125 688.888671875 l 1
 333.111328125 577.77734375 l 1
 388.666015625 577.77734375 l 1
 444.221679688 577.77734375 l 1
 444.221679688 466.666992188 l 1
 444.221679688 355.555664062 l 1
 499.77734375 355.555664062 l 1
 555.333007812 355.555664062 l 1
 555.333007812 466.666992188 l 1
 555.333007812 577.77734375 l 1
 610.888671875 577.77734375 l 1
 666.444335938 577.77734375 l 1
 666.444335938 688.888671875 l 1
 666.444335938 800 l 1
 722 800 l 1
 777.555664062 800 l 1
 777.555664062 688.888671875 l 1
 777.555664062 577.77734375 l 1
 722 577.77734375 l 1
 666.444335938 577.77734375 l 1
 666.444335938 466.666992188 l 1
 666.444335938 355.555664062 l 1
 610.888671875 355.555664062 l 1
 555.333007812 355.555664062 l 1
 555.333007812 77.77734375 l 1
 555.333007812 -200 l 1
 499.77734375 -200 l 1
 444.221679688 -200 l 1
 444.221679688 77.77734375 l 1
 444.221679688 355.555664062 l 1
 388.666015625 355.555664062 l 1
 333.111328125 355.555664062 l 1
 333.111328125 466.666992188 l 1
 333.111328125 577.77734375 l 1
 277.555664062 577.77734375 l 1
 222 577.77734375 l 1
 222 688.888671875 l 1
EndSplineSet
EndChar

StartChar: Z
Encoding: 90 90 45
Width: 1000
Flags: HW
LayerCount: 2
Back
Fore
SplineSet
166 744.444335938 m 1
 166 800 l 1
 499.333007812 800 l 1
 832.666992188 800 l 1
 832.666992188 633.333007812 l 1
 832.666992188 466.666992188 l 1
 777.111328125 466.666992188 l 1
 721.555664062 466.666992188 l 1
 721.555664062 411.111328125 l 1
 721.555664062 355.555664062 l 1
 666 355.555664062 l 1
 610.444335938 355.555664062 l 1
 610.444335938 300 l 1
 610.444335938 244.444335938 l 1
 554.888671875 244.444335938 l 1
 499.333007812 244.444335938 l 1
 499.333007812 188.888671875 l 1
 499.333007812 133.333007812 l 1
 443.77734375 133.333007812 l 1
 388.221679688 133.333007812 l 1
 388.221679688 77.77734375 l 1
 388.221679688 22.22265625 l 1
 332.666992188 22.22265625 l 1
 277.111328125 22.22265625 l 1
 277.111328125 -33.3330078125 l 1
 277.111328125 -88.888671875 l 1
 554.888671875 -88.888671875 l 1
 832.666992188 -88.888671875 l 1
 832.666992188 -144.444335938 l 1
 832.666992188 -200 l 1
 499.333007812 -200 l 1
 166 -200 l 1
 166 -33.3330078125 l 1
 166 133.333007812 l 1
 221.555664062 133.333007812 l 1
 277.111328125 133.333007812 l 1
 277.111328125 188.888671875 l 1
 277.111328125 244.444335938 l 1
 332.666992188 244.444335938 l 1
 388.221679688 244.444335938 l 1
 388.221679688 300 l 1
 388.221679688 355.555664062 l 1
 443.77734375 355.555664062 l 1
 499.333007812 355.555664062 l 1
 499.333007812 411.111328125 l 1
 499.333007812 466.666992188 l 1
 554.888671875 466.666992188 l 1
 610.444335938 466.666992188 l 1
 610.444335938 522.22265625 l 1
 610.444335938 577.77734375 l 1
 666 577.77734375 l 1
 721.555664062 577.77734375 l 1
 721.555664062 633.333007812 l 1
 721.555664062 688.888671875 l 1
 443.77734375 688.888671875 l 1
 166 688.888671875 l 1
 166 744.444335938 l 1
EndSplineSet
EndChar

StartChar: zero
Encoding: 48 48 46
Width: 1000
Flags: HW
LayerCount: 2
Back
Fore
SplineSet
499.333007812 300 m 1
 499.333007812 355.555664062 l 1
 554.888671875 355.555664062 l 1
 610.444335938 355.555664062 l 1
 610.444335938 300 l 1
 610.444335938 244.444335938 l 1
 554.888671875 244.444335938 l 1
 499.333007812 244.444335938 l 1
 499.333007812 188.888671875 l 1
 499.333007812 133.333007812 l 1
 443.77734375 133.333007812 l 1
 388.221679688 133.333007812 l 1
 388.221679688 188.888671875 l 1
 388.221679688 244.444335938 l 1
 443.77734375 244.444335938 l 1
 499.333007812 244.444335938 l 1
 499.333007812 300 l 1
277.111328125 744.444335938 m 1
 277.111328125 800 l 1
 499.333007812 800 l 1
 721.555664062 800 l 1
 721.555664062 744.444335938 l 1
 721.555664062 688.888671875 l 1
 777.111328125 688.888671875 l 1
 832.666992188 688.888671875 l 1
 832.666992188 300 l 1
 832.666992188 -88.888671875 l 1
 777.111328125 -88.888671875 l 1
 721.555664062 -88.888671875 l 1
 721.555664062 -144.444335938 l 1
 721.555664062 -200 l 1
 499.333007812 -200 l 1
 277.111328125 -200 l 1
 277.111328125 -144.444335938 l 1
 277.111328125 -88.888671875 l 1
 221.555664062 -88.888671875 l 1
 166 -88.888671875 l 1
 166 300 l 1
 166 688.888671875 l 1
 221.555664062 688.888671875 l 1
 277.111328125 688.888671875 l 1
 277.111328125 744.444335938 l 1
610.444335938 633.333007812 m 1
 610.444335938 688.888671875 l 1
 499.333007812 688.888671875 l 1
 388.221679688 688.888671875 l 1
 388.221679688 633.333007812 l 1
 388.221679688 577.77734375 l 1
 332.666992188 577.77734375 l 1
 277.111328125 577.77734375 l 1
 277.111328125 355.555664062 l 1
 277.111328125 133.333007812 l 1
 332.666992188 133.333007812 l 1
 388.221679688 133.333007812 l 1
 388.221679688 22.22265625 l 1
 388.221679688 -88.888671875 l 1
 499.333007812 -88.888671875 l 1
 610.444335938 -88.888671875 l 1
 610.444335938 -33.3330078125 l 1
 610.444335938 22.22265625 l 1
 666 22.22265625 l 1
 721.555664062 22.22265625 l 1
 721.555664062 188.888671875 l 1
 721.555664062 355.555664062 l 1
 666 355.555664062 l 1
 610.444335938 355.555664062 l 1
 610.444335938 411.111328125 l 1
 610.444335938 466.666992188 l 1
 666 466.666992188 l 1
 721.555664062 466.666992188 l 1
 721.555664062 522.22265625 l 1
 721.555664062 577.77734375 l 1
 666 577.77734375 l 1
 610.444335938 577.77734375 l 1
 610.444335938 633.333007812 l 1
EndSplineSet
EndChar

StartChar: one
Encoding: 49 49 47
Width: 999
Flags: HW
LayerCount: 2
Back
Fore
SplineSet
499.221679688 744.444335938 m 1
 499.221679688 800 l 1
 554.77734375 800 l 1
 610.333007812 800 l 1
 610.333007812 355.555664062 l 1
 610.333007812 -88.888671875 l 1
 665.888671875 -88.888671875 l 1
 721.444335938 -88.888671875 l 1
 721.444335938 -144.444335938 l 1
 721.444335938 -200 l 1
 554.77734375 -200 l 1
 388.110351562 -200 l 1
 388.110351562 -144.444335938 l 1
 388.110351562 -88.888671875 l 1
 443.666015625 -88.888671875 l 1
 499.221679688 -88.888671875 l 1
 499.221679688 188.888671875 l 1
 499.221679688 466.666992188 l 1
 388.110351562 466.666992188 l 1
 277 466.666992188 l 1
 277 522.22265625 l 1
 277 577.77734375 l 1
 332.555664062 577.77734375 l 1
 388.110351562 577.77734375 l 1
 388.110351562 633.333007812 l 1
 388.110351562 688.888671875 l 1
 443.666015625 688.888671875 l 1
 499.221679688 688.888671875 l 1
 499.221679688 744.444335938 l 1
EndSplineSet
EndChar

StartChar: two
Encoding: 50 50 48
Width: 1000
Flags: HW
LayerCount: 2
Back
Fore
SplineSet
277.111328125 744.444335938 m 1
 277.111328125 800 l 1
 499.333007812 800 l 1
 721.555664062 800 l 1
 721.555664062 744.444335938 l 1
 721.555664062 688.888671875 l 1
 777.111328125 688.888671875 l 1
 832.666992188 688.888671875 l 1
 832.666992188 522.22265625 l 1
 832.666992188 355.555664062 l 1
 777.111328125 355.555664062 l 1
 721.555664062 355.555664062 l 1
 721.555664062 300 l 1
 721.555664062 244.444335938 l 1
 666 244.444335938 l 1
 610.444335938 244.444335938 l 1
 610.444335938 188.888671875 l 1
 610.444335938 133.333007812 l 1
 554.888671875 133.333007812 l 1
 499.333007812 133.333007812 l 1
 499.333007812 77.77734375 l 1
 499.333007812 22.22265625 l 1
 443.77734375 22.22265625 l 1
 388.221679688 22.22265625 l 1
 388.221679688 -33.3330078125 l 1
 388.221679688 -88.888671875 l 1
 610.444335938 -88.888671875 l 1
 832.666992188 -88.888671875 l 1
 832.666992188 -144.444335938 l 1
 832.666992188 -200 l 1
 499.333007812 -200 l 1
 166 -200 l 1
 166 -88.888671875 l 1
 166 22.22265625 l 1
 221.555664062 22.22265625 l 1
 277.111328125 22.22265625 l 1
 277.111328125 77.77734375 l 1
 277.111328125 133.333007812 l 1
 332.666992188 133.333007812 l 1
 388.221679688 133.333007812 l 1
 388.221679688 188.888671875 l 1
 388.221679688 244.444335938 l 1
 443.77734375 244.444335938 l 1
 499.333007812 244.444335938 l 1
 499.333007812 300 l 1
 499.333007812 355.555664062 l 1
 554.888671875 355.555664062 l 1
 610.444335938 355.555664062 l 1
 610.444335938 411.111328125 l 1
 610.444335938 466.666992188 l 1
 666 466.666992188 l 1
 721.555664062 466.666992188 l 1
 721.555664062 522.22265625 l 1
 721.555664062 577.77734375 l 1
 666 577.77734375 l 1
 610.444335938 577.77734375 l 1
 610.444335938 633.333007812 l 1
 610.444335938 688.888671875 l 1
 499.333007812 688.888671875 l 1
 388.221679688 688.888671875 l 1
 388.221679688 633.333007812 l 1
 388.221679688 577.77734375 l 1
 277.111328125 577.77734375 l 1
 166 577.77734375 l 1
 166 633.333007812 l 1
 166 688.888671875 l 1
 221.555664062 688.888671875 l 1
 277.111328125 688.888671875 l 1
 277.111328125 744.444335938 l 1
EndSplineSet
EndChar

StartChar: three
Encoding: 51 51 49
Width: 1000
Flags: HW
LayerCount: 2
Back
Fore
SplineSet
277.111328125 744.444335938 m 1
 277.111328125 800 l 1
 499.333007812 800 l 1
 721.555664062 800 l 1
 721.555664062 744.444335938 l 1
 721.555664062 688.888671875 l 1
 777.111328125 688.888671875 l 1
 832.666992188 688.888671875 l 1
 832.666992188 522.22265625 l 1
 832.666992188 355.555664062 l 1
 777.111328125 355.555664062 l 1
 721.555664062 355.555664062 l 1
 721.555664062 300 l 1
 721.555664062 244.444335938 l 1
 777.111328125 244.444335938 l 1
 832.666992188 244.444335938 l 1
 832.666992188 77.77734375 l 1
 832.666992188 -88.888671875 l 1
 777.111328125 -88.888671875 l 1
 721.555664062 -88.888671875 l 1
 721.555664062 -144.444335938 l 1
 721.555664062 -200 l 1
 499.333007812 -200 l 1
 277.111328125 -200 l 1
 277.111328125 -144.444335938 l 1
 277.111328125 -88.888671875 l 1
 221.555664062 -88.888671875 l 1
 166 -88.888671875 l 1
 166 -33.3330078125 l 1
 166 22.22265625 l 1
 277.111328125 22.22265625 l 1
 388.221679688 22.22265625 l 1
 388.221679688 -33.3330078125 l 1
 388.221679688 -88.888671875 l 1
 499.333007812 -88.888671875 l 1
 610.444335938 -88.888671875 l 1
 610.444335938 -33.3330078125 l 1
 610.444335938 22.22265625 l 1
 666 22.22265625 l 1
 721.555664062 22.22265625 l 1
 721.555664062 77.77734375 l 1
 721.555664062 133.333007812 l 1
 666 133.333007812 l 1
 610.444335938 133.333007812 l 1
 610.444335938 188.888671875 l 1
 610.444335938 244.444335938 l 1
 499.333007812 244.444335938 l 1
 388.221679688 244.444335938 l 1
 388.221679688 300 l 1
 388.221679688 355.555664062 l 1
 499.333007812 355.555664062 l 1
 610.444335938 355.555664062 l 1
 610.444335938 411.111328125 l 1
 610.444335938 466.666992188 l 1
 666 466.666992188 l 1
 721.555664062 466.666992188 l 1
 721.555664062 522.22265625 l 1
 721.555664062 577.77734375 l 1
 666 577.77734375 l 1
 610.444335938 577.77734375 l 1
 610.444335938 633.333007812 l 1
 610.444335938 688.888671875 l 1
 499.333007812 688.888671875 l 1
 388.221679688 688.888671875 l 1
 388.221679688 633.333007812 l 1
 388.221679688 577.77734375 l 1
 277.111328125 577.77734375 l 1
 166 577.77734375 l 1
 166 633.333007812 l 1
 166 688.888671875 l 1
 221.555664062 688.888671875 l 1
 277.111328125 688.888671875 l 1
 277.111328125 744.444335938 l 1
EndSplineSet
EndChar

StartChar: four
Encoding: 52 52 50
Width: 1000
Flags: HW
LayerCount: 2
Back
Fore
SplineSet
388.221679688 688.888671875 m 1
 388.221679688 800 l 1
 443.77734375 800 l 1
 499.333007812 800 l 1
 499.333007812 688.888671875 l 1
 499.333007812 577.77734375 l 1
 443.77734375 577.77734375 l 1
 388.221679688 577.77734375 l 1
 388.221679688 466.666992188 l 1
 388.221679688 355.555664062 l 1
 332.666992188 355.555664062 l 1
 277.111328125 355.555664062 l 1
 277.111328125 300 l 1
 277.111328125 244.444335938 l 1
 443.77734375 244.444335938 l 1
 610.444335938 244.444335938 l 1
 610.444335938 522.22265625 l 1
 610.444335938 800 l 1
 666 800 l 1
 721.555664062 800 l 1
 721.555664062 522.22265625 l 1
 721.555664062 244.444335938 l 1
 777.111328125 244.444335938 l 1
 832.666992188 244.444335938 l 1
 832.666992188 188.888671875 l 1
 832.666992188 133.333007812 l 1
 777.111328125 133.333007812 l 1
 721.555664062 133.333007812 l 1
 721.555664062 -33.3330078125 l 1
 721.555664062 -200 l 1
 666 -200 l 1
 610.444335938 -200 l 1
 610.444335938 -33.3330078125 l 1
 610.444335938 133.333007812 l 1
 388.221679688 133.333007812 l 1
 166 133.333007812 l 1
 166 244.444335938 l 1
 166 355.555664062 l 1
 221.555664062 355.555664062 l 1
 277.111328125 355.555664062 l 1
 277.111328125 466.666992188 l 1
 277.111328125 577.77734375 l 1
 332.666992188 577.77734375 l 1
 388.221679688 577.77734375 l 1
 388.221679688 688.888671875 l 1
EndSplineSet
EndChar

StartChar: five
Encoding: 53 53 51
Width: 1000
Flags: HW
LayerCount: 2
Back
Fore
SplineSet
166 466.666992188 m 1
 166 800 l 1
 499.333007812 800 l 1
 832.666992188 800 l 1
 832.666992188 744.444335938 l 1
 832.666992188 688.888671875 l 1
 554.888671875 688.888671875 l 1
 277.111328125 688.888671875 l 1
 277.111328125 577.77734375 l 1
 277.111328125 466.666992188 l 1
 499.333007812 466.666992188 l 1
 721.555664062 466.666992188 l 1
 721.555664062 411.111328125 l 1
 721.555664062 355.555664062 l 1
 777.111328125 355.555664062 l 1
 832.666992188 355.555664062 l 1
 832.666992188 133.333007812 l 1
 832.666992188 -88.888671875 l 1
 777.111328125 -88.888671875 l 1
 721.555664062 -88.888671875 l 1
 721.555664062 -144.444335938 l 1
 721.555664062 -200 l 1
 499.333007812 -200 l 1
 277.111328125 -200 l 1
 277.111328125 -144.444335938 l 1
 277.111328125 -88.888671875 l 1
 221.555664062 -88.888671875 l 1
 166 -88.888671875 l 1
 166 -33.3330078125 l 1
 166 22.22265625 l 1
 277.111328125 22.22265625 l 1
 388.221679688 22.22265625 l 1
 388.221679688 -33.3330078125 l 1
 388.221679688 -88.888671875 l 1
 499.333007812 -88.888671875 l 1
 610.444335938 -88.888671875 l 1
 610.444335938 -33.3330078125 l 1
 610.444335938 22.22265625 l 1
 666 22.22265625 l 1
 721.555664062 22.22265625 l 1
 721.555664062 133.333007812 l 1
 721.555664062 244.444335938 l 1
 666 244.444335938 l 1
 610.444335938 244.444335938 l 1
 610.444335938 300 l 1
 610.444335938 355.555664062 l 1
 499.333007812 355.555664062 l 1
 388.221679688 355.555664062 l 1
 388.221679688 300 l 1
 388.221679688 244.444335938 l 1
 332.666992188 244.444335938 l 1
 277.111328125 244.444335938 l 1
 277.111328125 188.888671875 l 1
 277.111328125 133.333007812 l 1
 221.555664062 133.333007812 l 1
 166 133.333007812 l 1
 166 466.666992188 l 1
EndSplineSet
EndChar

StartChar: six
Encoding: 54 54 52
Width: 1000
Flags: HW
LayerCount: 2
Back
Fore
SplineSet
277.111328125 744.444335938 m 1
 277.111328125 800 l 1
 499.333007812 800 l 1
 721.555664062 800 l 1
 721.555664062 744.444335938 l 1
 721.555664062 688.888671875 l 1
 777.111328125 688.888671875 l 1
 832.666992188 688.888671875 l 1
 832.666992188 633.333007812 l 1
 832.666992188 577.77734375 l 1
 721.555664062 577.77734375 l 1
 610.444335938 577.77734375 l 1
 610.444335938 633.333007812 l 1
 610.444335938 688.888671875 l 1
 499.333007812 688.888671875 l 1
 388.221679688 688.888671875 l 1
 388.221679688 633.333007812 l 1
 388.221679688 577.77734375 l 1
 332.666992188 577.77734375 l 1
 277.111328125 577.77734375 l 1
 277.111328125 466.666992188 l 1
 277.111328125 355.555664062 l 1
 499.333007812 355.555664062 l 1
 721.555664062 355.555664062 l 1
 721.555664062 300 l 1
 721.555664062 244.444335938 l 1
 777.111328125 244.444335938 l 1
 832.666992188 244.444335938 l 1
 832.666992188 77.77734375 l 1
 832.666992188 -88.888671875 l 1
 777.111328125 -88.888671875 l 1
 721.555664062 -88.888671875 l 1
 721.555664062 -144.444335938 l 1
 721.555664062 -200 l 1
 499.333007812 -200 l 1
 277.111328125 -200 l 1
 277.111328125 -144.444335938 l 1
 277.111328125 -88.888671875 l 1
 221.555664062 -88.888671875 l 1
 166 -88.888671875 l 1
 166 300 l 1
 166 688.888671875 l 1
 221.555664062 688.888671875 l 1
 277.111328125 688.888671875 l 1
 277.111328125 744.444335938 l 1
610.444335938 188.888671875 m 1
 610.444335938 244.444335938 l 1
 499.333007812 244.444335938 l 1
 388.221679688 244.444335938 l 1
 388.221679688 188.888671875 l 1
 388.221679688 133.333007812 l 1
 332.666992188 133.333007812 l 1
 277.111328125 133.333007812 l 1
 277.111328125 77.77734375 l 1
 277.111328125 22.22265625 l 1
 332.666992188 22.22265625 l 1
 388.221679688 22.22265625 l 1
 388.221679688 -33.3330078125 l 1
 388.221679688 -88.888671875 l 1
 499.333007812 -88.888671875 l 1
 610.444335938 -88.888671875 l 1
 610.444335938 -33.3330078125 l 1
 610.444335938 22.22265625 l 1
 666 22.22265625 l 1
 721.555664062 22.22265625 l 1
 721.555664062 77.77734375 l 1
 721.555664062 133.333007812 l 1
 666 133.333007812 l 1
 610.444335938 133.333007812 l 1
 610.444335938 188.888671875 l 1
EndSplineSet
EndChar

StartChar: seven
Encoding: 55 55 53
Width: 1000
Flags: HW
LayerCount: 2
Back
Fore
SplineSet
166 744.444335938 m 1
 166 800 l 1
 499.333007812 800 l 1
 832.666992188 800 l 1
 832.666992188 577.77734375 l 1
 832.666992188 355.555664062 l 1
 777.111328125 355.555664062 l 1
 721.555664062 355.555664062 l 1
 721.555664062 300 l 1
 721.555664062 244.444335938 l 1
 666 244.444335938 l 1
 610.444335938 244.444335938 l 1
 610.444335938 188.888671875 l 1
 610.444335938 133.333007812 l 1
 554.888671875 133.333007812 l 1
 499.333007812 133.333007812 l 1
 499.333007812 -33.3330078125 l 1
 499.333007812 -200 l 1
 443.77734375 -200 l 1
 388.221679688 -200 l 1
 388.221679688 22.22265625 l 1
 388.221679688 244.444335938 l 1
 443.77734375 244.444335938 l 1
 499.333007812 244.444335938 l 1
 499.333007812 300 l 1
 499.333007812 355.555664062 l 1
 554.888671875 355.555664062 l 1
 610.444335938 355.555664062 l 1
 610.444335938 411.111328125 l 1
 610.444335938 466.666992188 l 1
 666 466.666992188 l 1
 721.555664062 466.666992188 l 1
 721.555664062 577.77734375 l 1
 721.555664062 688.888671875 l 1
 443.77734375 688.888671875 l 1
 166 688.888671875 l 1
 166 744.444335938 l 1
EndSplineSet
EndChar

StartChar: eight
Encoding: 56 56 54
Width: 1000
Flags: HW
LayerCount: 2
Back
Fore
SplineSet
277.111328125 744.444335938 m 1
 277.111328125 800 l 1
 499.333007812 800 l 1
 721.555664062 800 l 1
 721.555664062 744.444335938 l 1
 721.555664062 688.888671875 l 1
 777.111328125 688.888671875 l 1
 832.666992188 688.888671875 l 1
 832.666992188 522.22265625 l 1
 832.666992188 355.555664062 l 1
 777.111328125 355.555664062 l 1
 721.555664062 355.555664062 l 1
 721.555664062 300 l 1
 721.555664062 244.444335938 l 1
 777.111328125 244.444335938 l 1
 832.666992188 244.444335938 l 1
 832.666992188 77.77734375 l 1
 832.666992188 -88.888671875 l 1
 777.111328125 -88.888671875 l 1
 721.555664062 -88.888671875 l 1
 721.555664062 -144.444335938 l 1
 721.555664062 -200 l 1
 499.333007812 -200 l 1
 277.111328125 -200 l 1
 277.111328125 -144.444335938 l 1
 277.111328125 -88.888671875 l 1
 221.555664062 -88.888671875 l 1
 166 -88.888671875 l 1
 166 77.77734375 l 1
 166 244.444335938 l 1
 221.555664062 244.444335938 l 1
 277.111328125 244.444335938 l 1
 277.111328125 300 l 1
 277.111328125 355.555664062 l 1
 221.555664062 355.555664062 l 1
 166 355.555664062 l 1
 166 522.22265625 l 1
 166 688.888671875 l 1
 221.555664062 688.888671875 l 1
 277.111328125 688.888671875 l 1
 277.111328125 744.444335938 l 1
610.444335938 633.333007812 m 1
 610.444335938 688.888671875 l 1
 499.333007812 688.888671875 l 1
 388.221679688 688.888671875 l 1
 388.221679688 633.333007812 l 1
 388.221679688 577.77734375 l 1
 332.666992188 577.77734375 l 1
 277.111328125 577.77734375 l 1
 277.111328125 522.22265625 l 1
 277.111328125 466.666992188 l 1
 332.666992188 466.666992188 l 1
 388.221679688 466.666992188 l 1
 388.221679688 411.111328125 l 1
 388.221679688 355.555664062 l 1
 499.333007812 355.555664062 l 1
 610.444335938 355.555664062 l 1
 610.444335938 411.111328125 l 1
 610.444335938 466.666992188 l 1
 666 466.666992188 l 1
 721.555664062 466.666992188 l 1
 721.555664062 522.22265625 l 1
 721.555664062 577.77734375 l 1
 666 577.77734375 l 1
 610.444335938 577.77734375 l 1
 610.444335938 633.333007812 l 1
610.444335938 188.888671875 m 1
 610.444335938 244.444335938 l 1
 499.333007812 244.444335938 l 1
 388.221679688 244.444335938 l 1
 388.221679688 188.888671875 l 1
 388.221679688 133.333007812 l 1
 332.666992188 133.333007812 l 1
 277.111328125 133.333007812 l 1
 277.111328125 77.77734375 l 1
 277.111328125 22.22265625 l 1
 332.666992188 22.22265625 l 1
 388.221679688 22.22265625 l 1
 388.221679688 -33.3330078125 l 1
 388.221679688 -88.888671875 l 1
 499.333007812 -88.888671875 l 1
 610.444335938 -88.888671875 l 1
 610.444335938 -33.3330078125 l 1
 610.444335938 22.22265625 l 1
 666 22.22265625 l 1
 721.555664062 22.22265625 l 1
 721.555664062 77.77734375 l 1
 721.555664062 133.333007812 l 1
 666 133.333007812 l 1
 610.444335938 133.333007812 l 1
 610.444335938 188.888671875 l 1
EndSplineSet
EndChar

StartChar: nine
Encoding: 57 57 55
Width: 1000
Flags: HW
LayerCount: 2
Back
Fore
SplineSet
277.111328125 744.444335938 m 1
 277.111328125 800 l 1
 499.333007812 800 l 1
 721.555664062 800 l 1
 721.555664062 744.444335938 l 1
 721.555664062 688.888671875 l 1
 777.111328125 688.888671875 l 1
 832.666992188 688.888671875 l 1
 832.666992188 300 l 1
 832.666992188 -88.888671875 l 1
 777.111328125 -88.888671875 l 1
 721.555664062 -88.888671875 l 1
 721.555664062 -144.444335938 l 1
 721.555664062 -200 l 1
 499.333007812 -200 l 1
 277.111328125 -200 l 1
 277.111328125 -144.444335938 l 1
 277.111328125 -88.888671875 l 1
 221.555664062 -88.888671875 l 1
 166 -88.888671875 l 1
 166 -33.3330078125 l 1
 166 22.22265625 l 1
 277.111328125 22.22265625 l 1
 388.221679688 22.22265625 l 1
 388.221679688 -33.3330078125 l 1
 388.221679688 -88.888671875 l 1
 499.333007812 -88.888671875 l 1
 610.444335938 -88.888671875 l 1
 610.444335938 -33.3330078125 l 1
 610.444335938 22.22265625 l 1
 666 22.22265625 l 1
 721.555664062 22.22265625 l 1
 721.555664062 133.333007812 l 1
 721.555664062 244.444335938 l 1
 499.333007812 244.444335938 l 1
 277.111328125 244.444335938 l 1
 277.111328125 300 l 1
 277.111328125 355.555664062 l 1
 221.555664062 355.555664062 l 1
 166 355.555664062 l 1
 166 522.22265625 l 1
 166 688.888671875 l 1
 221.555664062 688.888671875 l 1
 277.111328125 688.888671875 l 1
 277.111328125 744.444335938 l 1
610.444335938 633.333007812 m 1
 610.444335938 688.888671875 l 1
 499.333007812 688.888671875 l 1
 388.221679688 688.888671875 l 1
 388.221679688 633.333007812 l 1
 388.221679688 577.77734375 l 1
 332.666992188 577.77734375 l 1
 277.111328125 577.77734375 l 1
 277.111328125 522.22265625 l 1
 277.111328125 466.666992188 l 1
 332.666992188 466.666992188 l 1
 388.221679688 466.666992188 l 1
 388.221679688 411.111328125 l 1
 388.221679688 355.555664062 l 1
 499.333007812 355.555664062 l 1
 610.444335938 355.555664062 l 1
 610.444335938 411.111328125 l 1
 610.444335938 466.666992188 l 1
 666 466.666992188 l 1
 721.555664062 466.666992188 l 1
 721.555664062 522.22265625 l 1
 721.555664062 577.77734375 l 1
 666 577.77734375 l 1
 610.444335938 577.77734375 l 1
 610.444335938 633.333007812 l 1
EndSplineSet
EndChar
